<svg xmlns="http://www.w3.org/2000/svg" width="500" height="500" viewBox="0 0 500 500"><path fill="#fefefe" d="M172.34 56.763c4.333-15.305 28.397-22.738 42.502-24.4 6.573-.773 19.673-2.34 16.998 8.629-.805 3.302-3.825 5.59-6.655 7.056 1.522 5.376 3.479 12.92 3.639 18.397 7.38-.197 14.503-.717 21.98-.526 2.883-.424 9.923.976 12.41.271 10.004-2.834 18.448-7.38 29.26-7.504 14.753-.17 26.312 7.414 37.478 16.104 6.957 5.414 13.999 10.802 20.716 16.553 7.715 5.935 15.415 11.65 24.34 15.664 8.266 3.718 17.027 4.848 25.984 5.352 2.715.153 5.926-.388 8.466.557.739.275 1.232 2.738 1.412 3.47 2.607 8.744 1.18 21.324 2.683 30.172.266 1.563 6.512 11.1 7.967 13.77a160 160 0 0 1 9.72 21.828 204.93 204.93 0 0 1 .938 133.122c-2.328 6.952-5.752 16.149-9.123 22.697-.464-.258-1.608-.86-1.968-1.149-7.72-3.043-7.64-2.844-15.568-4.039 5.32 2.13 11.864 6.766 16.012 10.676q1.356 1.198 2.74 2.365c1.504.818 2.929 2.673 4.045 4.008-6.655.128-12.406-1.221-18.798-3.094 1.55.75 3.656 1.7 5.104 2.536 16.1 7.27 24.304 9.553 36.21 23.687-1.382-.806-2.693-1.61-4.157-2.259-8.84-3.568-17.385-7.303-26.752-9.237-1.245-.257-2.118-.802-3.346-.728.183 1.247.378 2.982.691 4.164 3.889 2.3 6.002 3.764 3.93 8.577-1.462.54-1.93.735-3.308 1.5-.466.505-.909 1.03-1.431 1.468 4.96 2.492 14.62 7.722 18.903 11.102 7.324 2.923 20.524 15.44 23.743 22.855.341.787.514 1.311.204 2.132-.7.4-.956.263-1.755-.042l-1.088-.696c-3.633-1.503-7.613-4.738-11.029-6.8-9.657-5.825-19.841-12.132-31.301-13.289-5.233-.528-8.752-.301-13.936-.031-3.04 3.087-5.888 6.428-9.048 9.587-19.416 19.413-38.712 33.677-63.766 44.969a202.5 202.5 0 0 1-49.223 15.335c-12.883 2.346-26.84 2.938-39.952 3.248-15.696.371-32.413.768-47.958-1.19-8.852-1.115-21.498-3.93-29.824-7.216-20.953-8.269-41.848-21.196-58.276-36.656-5.602-5.274-11.166-11.781-16.303-17.41-13.712-15.03-24.372-31.266-32.838-49.75-16.031-35-2.162-65.606 13.68-97.373 2.536-5.085 8.512-16.306 10.388-21.317l.093-.258c-1.923-.754-3.533-1.483-5.265-2.608-14.565 1.316-24.558-7.343-19.739-22.433 1.286-4.027 3.251-6.797 5.521-10.307-.205-4.447-1.953-9.662-1.77-13.844.39-8.93 13.933-8.43 19.112-13.463-2.213-1.228-8.757-5.35-8.969-8.003-.645-8.06 5.1-17.23 9.564-23.53.199-1.537.165-3.387.614-4.864 2.007-6.616 7.499-12.995 12.263-17.897 1.16-1.338 3.809-3.163 4.71-4.653 4.114-6.813 5.344-15.402 13.023-19.62 3.244-1.783 8.134-2.163 11.796-1.041-.112-4.934.461-9.333 3-13.645a20.67 20.67 0 0 1 12.659-9.417c6.015-1.463 13.767.564 18.929 3.695-.471-6.478-3.447-18.432 6.471-18.938 2.818-.144 4.127.847 6.142 2.543 3.59-.358 4.092-.597 7.106 1.138m-51.68 53.755c2.22-1.688 4.327-3.62 5.964-5.893-2.039-2.093-3.795-4.033-6.119-5.812-2.51 2.53-6.55 9.349-4.146 12.637 1.464.978 3.013-.119 4.302-.932"/><path fill="#31b7b3" d="M456.466 411.8c-3.172-4.319-15.168-11.65-20.05-14.348-21.261-11.752-44.954-12.996-68.404-8.09-14.337 3.149-28.19 6.768-42.981 7.057-57.453 1.121-120.061-31.022-139.36-87.73-6.053-17.79-5.374-32.233 2.897-49.051.995 16.766 3.557 28.501 11.661 43.443 23.938 44.134 70.907 65.346 119.769 65.534 28.905.11 58.628-5.085 86.641 4.3 3.071 1.027 6.01 2.398 9.161 3.335.82-.62 1.165-.789 2.09-1.268-.466.505-.909 1.03-1.431 1.468 4.96 2.492 14.62 7.722 18.903 11.102 7.324 2.923 20.524 15.44 23.743 22.855.341.787.514 1.311.204 2.132-.7.4-.956.263-1.755-.042z"/><path fill="#fefefe" d="M435.362 387.552c7.324 2.923 20.524 15.44 23.743 22.855.341.787.514 1.311.204 2.132-.7.4-.956.263-1.755-.042-2.755-5.65-10.734-14.485-15.405-18.923-1.238-1.175-6.189-5.005-6.787-6.022"/><path fill="#cdaa63" d="M267.657 74.055c8.053-5.128 13.38-7.749 23.22-8.743 2.832-.286 6.16-.226 8.933.592 17.488 5.16 33.093 20.361 47.045 31.377 13.68 10.8 28.776 19.97 46.636 20.432 5.454.141 11.95-.752 17.38-1.327 2.606 8.744 1.178 21.324 2.682 30.172.266 1.563 6.512 11.1 7.967 13.77a160 160 0 0 1 9.72 21.828 204.93 204.93 0 0 1 .938 133.122c-2.328 6.952-5.752 16.149-9.123 22.697-.464-.258-1.608-.86-1.968-1.149-.724-.884-1.312-1.315-2.184-2.036 4.268-8.791 8.365-18.62 11.023-28.1 11.756-41.937 10.833-87.854-5.39-128.497-3.076-7.705-7.16-15.044-11.191-22.247.188 28.784-6.771 59.859-16.82 86.738-1.03 2.754-6.462 17.356-9.02 17.949-.175-.89.074-1.085.403-2.093-.522-1.455-.936-2.276-1.627-3.651a249.8 249.8 0 0 0 22.144-95.465c.32-12.459-.406-24.647-1.229-37.061-31.31 4.11-51-10.886-73.7-29.698-10.482-8.686-26.735-22.232-40.982-22.526-10.952-.226-22.445 7.515-31.342 13.446-21.261 14.172-41.395 32.434-67.09 37.978-6.474 1.388-14.572.747-21.228.476-.18 7.402-.941 14.778-1.207 22.181-.535 14.88.487 28.539 2.536 43.225-1.504.053-3.19.234-4.703.367-.33-6.375-1.572-14.015-1.992-20.916-1.098-18.053-.354-32.968 1.489-50.84 28.027 6.689 50.444-8.716 72.053-24.171l19.42-13.8c-19.104-.058-34.122 1.762-52.503 7.693-43.348 13.987-81.753 51.156-98.507 93.4a212 212 0 0 0-7.467 23.078c-1.258 4.934-1.637 10.714-3.8 15.27-.816 1.715-3.789 4.23-5.313 5.617 1.577-9.305 2.506-15.7 5.053-24.995a174.26 174.26 0 0 1 58.175-89.777 158.83 158.83 0 0 1 85.496-34.315c8.89-.798 17.194-.98 26.073 0"/><path fill="#cdaa63" d="M207.412 302.55c3.113 1.78 5.876 4.07 8.836 6.042 33.686 22.43 73.487 21.223 112.056 17.12 25.845-2.75 54.787-3.455 78.559 8.762 2.107 1.084 13.941 8.86 14.668 8.989q1.356 1.198 2.74 2.365c-.95.125-16.99-4.965-20.05-5.561-34.428-6.707-70.377 1.436-104.952 5.48-41.066 4.805-71.065-5.34-91.857-43.197"/><path fill="#31b7b3" d="M263.365 351.557c2.942.035 7.062.605 10.143.847 5.935.483 11.897.546 17.84.19 28.994-1.949 58.005-8.95 87.68-9.084 8.596-.025 17.166.957 25.533 2.927 2.298.546 8.13 2.806 10.06 2.841 16.1 7.27 24.305 9.553 36.212 23.687-1.383-.806-2.694-1.61-4.158-2.259-1.206-1.466-10.856-5.587-13.116-6.554-25.036-10.713-50.056-9.946-76.55-6.195-11.57 1.638-25.09 3.432-36.868 3.288a171.6 171.6 0 0 1-40.207-4.882c-5.354-1.338-11.188-3.271-16.569-4.806"/><path fill="#033a5b" d="M184.003 217.386c5.25-.516 13.02-.038 18.023 1.166 10.673 2.57 15.832 7.792 21.4 16.675-11.178-8.685-20.932-11.917-34.985-7.957-17.11 4.8-29.938 18.951-38.24 33.975-19.441 35.184-20.887 78.098 3.728 111.165 16.757 22.51 37.756 37.262 63.184 48.738a240 240 0 0 0 17.503 7.091c4.95 1.763 9.862 3.21 14.635 5.427 5.88 2.731 9.351 7.834 14.588 11.241 6.765 4.402 14.346 7.393 21.452 11.342.124.111.042.012.241.442-1.921 1.513-23.033 4.006-26.616 4.339-51.212 4.752-103.778-9.97-143.468-43.065-3.41-2.843-7.341-5.895-9.826-9.603-5.955-8.887-10.387-34.6-11.376-45.777-3.59-40.544 6.956-82.485 33.376-114.017 15.069-17.985 32.516-29.074 56.381-31.182"/><path fill="#7d4f21" d="M293.558 210.728c-.845-.92-2.048-1.804-1.702-3.098l.52-.116c1.076.354 1.649 1.104 2.473 1.923.644-.849 1.58-2.27 2.75-1.845l.083.597c-.345 1.045-1.014 1.61-1.77 2.434 3.01 3 6.797 6.019 9.98 9.119 6.833 6.655 11.344 13.09 16.546 20.991l.25.33c1.124-.26 4.55-4.494 5.51-5.59.674-.478 1.466-1.314 2.073-1.912l1.349-1.403c1.363-1.34 3.26-2.831 4.756-4.075-.815-.84-1.05-.923-1.258-1.937l.275-.327.585.09c.837.628.794.627 1.364 1.531.428.75.125.521.791.893 1.255.797 1.563 1.095 2.613 2.096 1.66 1.479 3.483 3.04 5.042 4.604 1.943 2.431 7.164 8.362 8.25 10.637l.903.793q.235-.03.469-.057c3.778-3.582 7.206-7.595 11.546-10.535-.555-.682-1.184-1.282-1.312-2.124l.214-.32c1.668.272 1.268 1.605 2.38.913.621-.386 1.211-.77 1.888-.872.169.955-.909 1.713-1.569 2.339 4.59 4.7 15.267 15.821 16.019 22.181l-.18.421-.302.11c-2.08.78-2.1.95-2.114 3.13 0 1.11-.134 2.263.355 3.206.662.51.301.38 1.111.434 1.508-.8 1.386-2.985 2.041-3.028.611 1.633.438 2.102.199 3.873.97.279 1.97.549 2.925.864.164-1.105.171-1.956.795-2.856l.376-.036c.582 1.178.334 2.219.176 3.532l2.745 1.016c.125-.924.163-1.727.583-2.557l.389-.158c1.609 1.76-.846 2.54 1.605 4.25-.208 1.158-1.577.37-1.497 3.139 4.927 1.44 10.604 3.727 14.262 7.497 4.424 4.558 3.299 11.963 3.065 17.994a39 39 0 0 1-7.079.929c-4.636.214-19.393-.645-22.14 1.853-.897 2.59 2.714 3.56 1.358 5.843-4.935 3.106-54.18 2.558-62.546 1.171-2.186-.363-2.755-1.695-3.759-3.345-.457-.751-1.608-1.471-2.469-1.593-3.08-.435-6.638-.598-9.73-.73a755 755 0 0 0-19.59-.444c-2.814-.036-17.075.058-18.494-1.964 1.004-2.153 13.906-4.415 13.07-8.355-1.572-1.97-6.527-3.061-8.944-3.4-5.813-.97-11.774-.772-17.602-1.19-17.094-1.226-38.065.656-54.628-3.495-.644-1.873-1.192-4.043-1.726-5.97 6.567-3.341 15.773-6.1 22.92-7.872.848-.296.965-.265 1.608-.912-.163-1.204-.252-3 .295-4.104l.341.114c.82 1.183.8 2.02 1 3.452l2.366-1.22c-.021-1.384-.451-4.11.684-4.812.853 1.086.058 2.675 1.152 4.041.94-.142.481.009 1.343-.712.643-1.295-.5-1.911.497-3.38l.395.049c.882 1.128.143 1.782.862 2.726.759.06.392.137 1.096-.381.734-1.641-.6-3.302.666-4.166l.541.144c.709 1.314-.213 1.636.46 3.41.647.588.44.4 1.595.404 1.005-2.195-.238-3.724 1.594-6.851.613-.645 2.195-1.976 2.92-2.619l.23-.266c1.425-2.064 3.119-4.002 4.682-6.29l.203-.3c1.154-2.34 1.956-4.252 2.931-6.656.383-1.811.94-5.377 1.857-6.83.555-.643 2.343-2.392 2.59-2.911-.668-.926-1.01-1.01-.939-1.844l.345-.246c.732.15 1.065.536 1.643 1.02 1.246-.412.729-.86 1.932-1.016l.307.46c-.218.741-.487 1.008-.947 1.617.652 1.182 3.782 3.76 4.98 4.809a509 509 0 0 0 6.18 7.112c.676-.328.363-.128.809-.997 6.14-11.68 17.504-24.01 27.59-32.374"/><path fill="#cdaa63" d="m382.278 270.039 1.963.514c-.232 1.225-.539 2.146.095 3.208l.426.08c.78-.755.725-1.735.756-2.813.84.13 2.081.364 2.894.424-.164 1.139-.57 2.516.266 3.43.983-.486.857-1.729.938-2.75.9.154 2.012.377 2.908.456-.247 1.389-.474 2.007.12 3.237l.419.176c.752-.86.697-1.503.72-2.673 4.927 1.44 10.604 3.727 14.262 7.497 4.424 4.558 3.299 11.963 3.065 17.994a39 39 0 0 1-7.079.929c-4.636.214-19.393-.645-22.14 1.853-.897 2.59 2.714 3.56 1.358 5.843-4.935 3.106-54.18 2.558-62.546 1.171-2.186-.363-2.755-1.695-3.759-3.345-.457-.751-1.608-1.471-2.469-1.593-3.08-.435-6.638-.598-9.73-.73a755 755 0 0 0-19.59-.444c-2.814-.036-17.075.058-18.494-1.964 1.004-2.153 13.906-4.415 13.07-8.355-1.572-1.97-6.527-3.061-8.944-3.4-5.813-.97-11.774-.772-17.602-1.19-17.094-1.226-38.065.656-54.628-3.495-.644-1.873-1.192-4.043-1.726-5.97 6.567-3.341 15.773-6.1 22.92-7.872.63 1.139.433.895 1.772 1.184.665 1.58.004 2.34.895 4.051 1.043.727 2.404.234 3.627.103 6.103-.654 13.32-1.206 19.44-1.19 11.89.032 24.007.544 35.867 1.23q6.964.4 13.91 1.053c2.066.184 5.742.628 7.717.632-.38-.938-.735-1.517-.188-2.424.97-.065 4.9 2.365 6.56 2.617 8.567 1.298 17.196 3.8 25.737 4.976-1.099-1.536-4.553-6.313-4.034-8.165.669-.506.282-.373 1.243-.26 1.065-.611 5.518-.257 7.31-.405 3.236-.054 6.554.195 9.885.094 4.034-.122 8.26-.46 12.26-.431 2.043.014 5.03.508 7.19.696q6.688.519 13.394.68c-.06-1.507-.045-3.143-.058-4.66"/><path fill="#7d4f21" d="M335.088 282.49c-1.099-1.537-4.553-6.314-4.034-8.166.669-.506.282-.373 1.243-.26 9.43 4.213 19.965 5.673 29.911 8.026 10.502 2.485 18.136 5.23 29.042 5.639-3.71 4.079-7.994 8.823-13.91 8.797-5.707-.025-14.985-1.518-20.456-2.91l-3.135 1.451-.294.066c-10.399 2.242-35.821-3.563-44.856-9.315-2.56-2.593-3.949-5.332-5.62-8.498-.38-.938-.735-1.517-.188-2.424.97-.065 4.9 2.365 6.56 2.617 8.567 1.298 17.196 3.8 25.737 4.976"/><path fill="#c49b55" d="M304.148 277.502c8.837 5.88 16.746 7.157 26.921 9.035 10.835 2 20.102 2.427 30.998 1.54-4.21 3.789-9.242 6.959-15.13 6.263-9.075-1.074-33.129-3.868-38.785-10.925l-.576-1.011c-1.383-.674-2.632-3.457-3.428-4.902"/><path fill="#7d4f21" d="M307.576 282.404c3.512.91 9.86 2.698 12.966 4.335-4.722-.53-7.926-1.79-12.39-3.324z"/><path fill="#7d4f21" d="M327.826 287.38c2.791-.093 8.442 1.8 11.568 2.08 4.724.425 9.127-.314 13.708.782-5.798.74-20.099-.451-25.276-2.862"/><path fill="#7d4f21" d="M320.378 288.084c2.008.014 11.304 1.856 12.936 2.575-3.596.1-9.64-1.194-12.936-2.575"/><path fill="#906331" d="M348.717 292.364c1.554-.152 3.403-.252 4.92.12l.19.344c-1.044.034-4.481.267-5.11-.464"/><path fill="#906331" d="M339.207 291.135c1.337-.192 1.837-.195 3.062.261-1.3.168-1.881.213-3.062-.26"/><path fill="#c49b55" d="M363.244 288.24c9.052 1.51 15.907 2.314 25.169.935l-2.776 2.77c-3.742-.513-7.693-.327-11.508-.6-1.888-.135-9.324-1.454-10.542-.963l1.017.306c5.748.813 11.469 1.422 17.262 1.844.55.04.661.228.901.632-2.193 3.918-20.212.11-24.448-.614 2.023-1.412 3.3-2.473 4.925-4.31"/><path fill="#7d4f21" d="M368.851 292.6c1.692-.2 9.203.169 10.77.737-2.443.236-8.592.018-10.77-.738"/><path fill="#c49b55" d="M333.222 277.965c1.31.472 3.431 2.359 4.626 2.914 2.768 1.286 6.154 2.444 9.037 3.497-6.096.472-10.14-1.48-13.663-6.411"/><path fill="#c49b55" d="M356.187 282.246c1.758-.204 3.036.153 4.74.515-1.338.863-2.74 1.57-4.147 2.313-.847.02-2.833-.125-3.52-.612l-.012-.456c.703-.879 1.873-1.268 2.939-1.76"/><path fill="#906331" d="M351.968 286.242c1.685-.095 5.366.084 6.925.643-.782.087-.94.09-1.716.326-.108.594-.006.4-.397.848-.632-.19-.965-.307-1.62-.383l-.42-.046c-2.124-.354-5.8-.418-8.178-.655l-.172-.216-.241.12.32.034.003-.218c1.823-.225 3.664-.329 5.496-.453"/><path fill="#c49b55" d="m370.264 285.171 3.562 1.115c-1.816 1.093-2.525 1.665-4.69 1.627l-4.124-.418a93 93 0 0 0 5.252-2.324"/><path fill="#c49b55" d="M375.065 286.309c1.428.205 6.836 1.121 7.592 2.046l-.322.217c-1.522-.035-7.512.12-7.902-1.627z"/><path fill="#c49b55" d="M326.858 282.22c.891-.01 4.109.517 5.164.668-1 .49-1.932.874-2.956 1.3-1.535.093-2.864.25-4.307-.279l-.139-.409c.52-.693 1.409-.939 2.238-1.28"/><path fill="#c49b55" d="M346.055 279.821c.789-.026 1.908-.183 2.322.568-.706 1.007-2.235 1.467-3.383 1.894-1.32-.139-2.3-.436-3.578-.771 1.778-.91 2.727-1.267 4.64-1.69"/><path fill="#c49b55" d="M314.713 280.114c1.529-.172 3.018.108 4.548.31-1.824.714-2.706.96-4.618 1.42-.957-.387-1.688-.567-2.366-1.327.598-.23 1.745-.317 2.436-.403"/><path fill="#c49b55" d="M342.446 285.238c1.096.075 1.913.192 3 .364-1.81.687-2.481.972-4.377 1.248-.67.029-1.983.166-2.404-.398.905-.91 2.54-1.052 3.78-1.214"/><path fill="#c49b55" d="M361.324 283.471c1.24-.072 5.757.766 6.702 1.68-1.611-.047-4.784-.168-6.214-.85-.444-.21-.322-.258-.488-.83"/><path fill="#c49b55" d="M332.287 283.773q.967.04 1.932.128c1.167.111 4.276.37 4.997 1.233-1.817.057-5.848.122-6.929-1.36"/><path fill="#c49b55" d="M349.697 280.86c1.375.009 4.14.154 5.126 1.116-1.642.419-4.041.406-5.126-1.116"/><path fill="#c49b55" d="M319.113 280.785c1.92.228 4.376.561 6.176 1.227-1.762.522-4.694-.142-6.176-1.227"/><path fill="#906331" d="M312.277 280.517c-.344-.901-.828-.892-1.897-1.392l-.084-.278.616-.206c2.474.411 1.403 1.348 3.801 1.473-.691.086-1.838.173-2.436.403"/><path fill="#c49b55" d="M308.6 285.818c9.034 5.752 34.456 11.557 44.855 9.315l.294-.066c.933 1.13 3.853.796 4.843 2.513l-.273.417c-5.63 1.246-53.678-7.499-54.93-10.862.986-1.012 3.712-.747 5.21-1.317"/><path fill="#c49b55" d="M272.889 281.346c1.278-.203 1.73-.297 2.684.28l-.276-.316.3.288c-.05 1.691-4.231 2.198-5.448 2.354-1.056-.024-2.374.09-3.071-.77l.334-.457c2.287-1.155 2.963-1.112 5.477-1.379"/><path fill="#c5884d" d="M345.112 299.608c1.454-.026 3.532.1 4.33 1.502-.507.734-.478.53-1.52.9-1.57.06-3.79.188-5.013-.92l.02-.469c.627-.666 1.29-.748 2.183-1.013"/><path fill="#c5884d" d="M240.99 278.112c1.62-.047 3.887-.165 4.965 1.254-.377.705-.277.487-1.199.892a25 25 0 0 1-2.828-.117c-1.05-.097-1.616-.108-2.238-.857.313-.795.368-.612 1.3-1.172"/><path fill="#c5884d" d="M366.232 279.368c1.426-.085 3.187-.05 4.103 1.193-.472.644-.468.46-1.461.73-1.296.118-3.65.346-4.347-1.02.663-.742.605-.54 1.705-.903"/><path fill="#c49b55" d="M389.71 279.835c1.147-.066 2.67-.026 3.268 1.1-.597.68-.48.472-1.569.717-1.042-.04-3.401.014-3.795-1.06.643-.608 1.212-.6 2.096-.757"/><path fill="#c49b55" d="M312.78 296.235c1.265-.11 3.701-.335 4.626.6l-.095.403-.68.328c-1.144.172-3.737.538-4.611-.331.096-.712-.014-.362.76-1"/><path fill="#c49b55" d="M291.328 292.812c1.02.055 2.343-.022 2.805 1.031-.608.583-.593.424-1.548.657-.915-.08-2.736-.063-3.083-1.057.56-.56 1.027-.522 1.826-.63"/><path fill="#c49b55" d="M303.06 292.989c1.155-.038 2.06-.053 3.047.606l-.014.394-.7.456q-.563.034-1.127.043c-.742.005-1.64-.023-2.189-.55.243-.758.055-.398.984-.95"/><path fill="#c49b55" d="M395.797 288.027c1.066.049 1.327-.014 2.236.465.492.795.382.362.246 1.363-1-.095-1.47-.066-2.356-.488-.456-.77-.366-.347-.126-1.34"/><path fill="#c49b55" d="M359.914 300.016c.92-.027 1.477-.122 2.245.362.39.82.293.372.08 1.42-1.022-.079-1.29-.035-2.18-.477-.44-.757-.35-.344-.145-1.305"/><path fill="#c5884d" d="M381.634 281.7c.95.112.99.096 1.864.438.5.848.346.374.24 1.53-.826-.016-.976.04-1.744-.285-.5-.781-.336-.601-.36-1.683"/><path fill="#c49b55" d="M297.84 295.806c.843.041 1.054-.009 1.779.445.306.897.271.424-.106 1.469-.749-.125-.902-.227-1.59-.519-.453-.805-.37-.364-.082-1.395"/><path fill="#c49b55" d="M282.238 281.887c.94.049.936.035 1.816.34.481.678.36.3.29 1.198-.837.127-.888.173-1.751.039-.512-.708-.347-.514-.355-1.577"/><path fill="#c49b55" d="M261.835 279.543c.888-.055 1.141-.11 2.029.097.603.65.418.264.455 1.25-.834.051-.963.012-1.766-.104-.736-.596-.467-.22-.718-1.243"/><path fill="#c49b55" d="M352.282 303.275c1.368-.03 2.268-.335 2.66 1.107-.865.087-1.053.053-1.9-.018-.779-.546-.543-.189-.76-1.09"/><path fill="#c5884d" d="M251.599 277.82c.889.126 1.14.007 1.74.484l-.209.486c-.928-.106-1.224.032-1.809-.464z"/><path fill="#c49b55" d="m228.551 267.878 1.309.01.332 1.657 1.598-.351c.044 1.319-.06 2.343.573 3.47l.401.217c.793-.777.524-2.197.454-3.241l1.122-.02c.027 1.147.026 2.427.087 3.559q11.375.008 22.746-.182c3.676-.046 7.533.001 11.175-.388 1.53-.163 1.914-2.1 4.306-2.109 2.295-.007 4.644.034 6.946.086q6.49.163 12.98.219 6.265.101 12.53.045c1.836-.027 9.29-.393 10.461.201 1.306 2.732 2.977 2.184 5.669 2.26q5.498.154 10.998.126c1.77.001 5.814-.082 7.37.222-1.793.148-6.246-.206-7.31.405-.962-.113-.575-.246-1.244.26-.519 1.852 2.935 6.63 4.034 8.165-8.54-1.175-17.17-3.678-25.736-4.976-1.662-.252-5.591-2.682-6.56-2.617-.548.907-.193 1.486.187 2.424-1.975-.004-5.65-.448-7.717-.632q-6.946-.653-13.91-1.052c-11.86-.687-23.977-1.199-35.867-1.23-6.12-.017-13.337.535-19.44 1.189-1.223.131-2.584.624-3.627-.103 1.233-1.675.711-3.01.413-5.194l2.743-1.3c.017 1.375-.24 3.388.283 4.477l.4.128c1.127-1.37.176-2.755.534-4.272.51-.79.658-.813 1.512-1.31z"/><path fill="#906331" d="m228.551 267.878 1.309.01.332 1.657q.065 1.067-.025 2.13c-.071.834-.143 1.157-.712 1.64-.832-.867-.537-4.09-.904-5.437"/><path fill="#c49b55" d="M366.956 235.87c-.555-.681-1.184-1.28-1.312-2.123l.214-.32c1.668.272 1.268 1.605 2.38.913.621-.386 1.211-.77 1.888-.872.169.955-.909 1.713-1.569 2.339 4.59 4.7 15.267 15.821 16.019 22.181l-.18.421-.302.11c-2.08.78-2.1.95-2.114 3.13l-.23-.321c-.157-1.372.118-2.253.39-3.604-1.854-.592-.576.339-2.324.413-.75-.398-1.29-.803-2.117-.78-2.936 1.549-1.86-.216-3.88-.407-.58.516-.669.628-1.361 1.019-2.694-1.545-3.461.304-6.42.17-.208-.009-.196-.658-1.14-.905-.964 1.32-3.432-.377-5.002-.36-1.087.013-1.955-.144-3.078.153-.555.146-.948-.333-1.282-.673.164-.824.778-1.309 1.381-2.126-.405-.334-.508-.52-.843-.93l.982-.574.544.475.18-.158c-.188-.782-.341-1.152-.13-1.96-.479-.786-.686-1.04-1.285-1.748-.571-.827-2.197-2.844-2.327-3.663l.903.793q.235-.03.469-.057c3.778-3.582 7.206-7.595 11.546-10.535"/><path fill="#c49b55" d="M359.014 252.077c2.138.084 5.597-.084 7.395.25.01.757-.118 1.347.207 1.9.298-.782.364-1.103.534-1.898 1.168-.244 2.33-.12 3.532-.07.192.705.384 1.86.815 2.305 1.09-1.07-.843-2.15 2.245-2.047 2.508.084 4.929.312 7.442.28.681 1.211 2.025 3.279 1.86 4.64l-.355.336-.549-.049c-1.854-.592-.576.339-2.324.413-.75-.398-1.29-.803-2.117-.78-2.936 1.549-1.86-.216-3.88-.407-.58.516-.669.628-1.361 1.019-2.694-1.545-3.461.304-6.42.17-.208-.009-.196-.658-1.14-.905-.964 1.32-3.432-.377-5.002-.36-1.087.013-1.955-.144-3.078.153-.555.146-.948-.333-1.282-.673.164-.824.778-1.309 1.381-2.126.117-.023.848.025.993.032.824-.63.737-1.045 1.104-2.183"/><defs><linearGradient id="a" x1="756.181" x2="769.631" y1="519.153" y2="483.807" gradientUnits="userSpaceOnUse"><stop offset="0" stop-color="#865a2a"/><stop offset="1" stop-color="#9e713a"/></linearGradient></defs><path fill="url(#a)" d="M751.527 483.064c-1.137-1.397-2.426-2.625-2.688-4.349l.439-.657c3.415.558 2.596 3.287 4.875 1.87 1.271-.79 2.479-1.576 3.866-1.786.345 1.956-1.862 3.508-3.213 4.791 9.401 9.624 31.265 32.402 32.806 45.427l-.368.862-.619.226c-4.261 1.596-4.302 1.944-4.33 6.408l-.469-.656c-.323-2.809.24-4.614.798-7.38l1.123.1.726-.69c.34-2.786-2.413-7.021-3.808-9.501-5.147.066-10.104-.402-15.241-.574-6.325-.212-2.365 2.002-4.597 4.192-.883-.912-1.277-3.277-1.67-4.72-2.462-.102-4.842-.356-7.234.144-.347 1.628-.483 2.284-1.093 3.887-.666-1.134-.404-2.341-.423-3.891l.007-.383c1.786-3.212.253-3.932 1.452-6.265.275 4.948 2.156 5.759 6.79 3.946l.34-1.334.576-.157c2.044 3.376 15.663 3.394 19.773 3.673-3.565-10.163-18.394-23.987-26.37-31.688-10.09 7.433-15.819 16.191-23.139 26.075-1.17-1.693-4.5-5.825-4.766-7.502l1.849 1.625.961-.118c7.737-7.336 14.758-15.553 23.647-21.575" transform="scale(.48828)"/><path fill="#906331" d="m360.312 246.826.555-.003c-.598 1.01-1.45 2.227-1.648 3.334.34 1.171.943.97 2.117 1.03.398-.19.431-.128.656-.427l.299.184 4.174.243-.052.953-.004.187c-1.798-.334-5.257-.166-7.395-.25-.367 1.138-.28 1.553-1.104 2.183-.145-.007-.876-.055-.993-.032-.405-.334-.508-.52-.843-.93l.982-.574.544.475.18-.158c-.188-.782-.341-1.152-.13-1.96 1.003-1.148 1.893-2.89 2.662-4.255"/><path fill="#7d4f21" d="M366.465 251.187c.05-2.794.043-6.402.666-9.086.095 2.4.044 4.587-.01 6.98-.585 1.14.164 1.491-.708 3.06z"/><path fill="#906331" d="M360.312 246.826c.565-.93 1.323-2.267 1.951-3.11l.209.025.157-.32-.22.12.323-.282-.1.318-.146-.048.044.307a58 58 0 0 1-1.663 2.987z"/><path fill="#c5884d" d="M370.603 250.357c-.262-.825-.722-2.036-.275-2.836.563.667.556 1.868.557 2.76z"/><path fill="#906331" d="M361.992 250.76c.342-.856.643-1.895 1.3-2.494.103.751-.603 2.014-1.001 2.678z"/><path fill="#906331" d="M370.751 242.103c1.65 1.502 3.355 6.115 4.145 8.239-1.125-.687-3.478-6.69-4.145-8.239"/><path fill="#906331" d="M375.021 245.588c.857.884 1.657 2.41 2.244 3.503-1.177-.71-1.927-2.207-2.244-3.503"/><path fill="#cdaa63" d="M320.356 246.556c5.6-7.336 9.613-11.908 16.938-17.691 4.882 4.411 14.105 12.62 16.266 18.639l.314.458c-1.714-.102-3.806-.298-5.477-.107-.362.593-.058 1.089.127 2.01l-.265.033-1.05-2.259c-1.13-.148-3.398-.558-4.301-.102l.166 1.494c-.39-.313-.68-1.291-.901-1.845l-4.764-.161c-.008.79.08 2.247-.28 2.852-.36-.894-.273-1.929-.28-2.911-1.752-.067-4.714-.424-5.274 1.144-.137.382-.415.66-.728.774l-.117-1.415c-.981-.689-2.777-.283-3.972-.114-.389.63-.86 1.258-1.293 1.863-.13-1.062.528-1.054.091-1.893-2.02.05-3.717.072-5.73-.015z"/><path fill="#906331" d="M346.702 246.575c-.785-1.385-6.018-11.208-5.857-11.974 2.26 2.716 4.503 8.849 6.619 12.14 2.155.183 3.953.435 6.096.763l.314.458c-1.714-.102-3.806-.298-5.477-.107-.362.593-.058 1.089.127 2.01l-.265.033-1.05-2.259c-1.13-.148-3.398-.558-4.301-.102l.166 1.494c-.39-.313-.68-1.291-.901-1.845l-4.764-.161c-.008.79.08 2.247-.28 2.852-.36-.894-.273-1.929-.28-2.911-1.752-.067-4.714-.424-5.274 1.144-.137.382-.415.66-.728.774l-.117-1.415c-.981-.689-2.777-.283-3.972-.114-.389.63-.86 1.258-1.293 1.863-.13-1.062.528-1.054.091-1.893-2.02.05-3.717.072-5.73-.015l.53-.754c2.21.062 3.836.02 6.046-.108.993-1.824 5.375-10.533 6.512-11.022l-5.855 10.925 4.232-.135c.56-1.715 1.1-3.532 1.887-5.146a85 85 0 0 1-1.39 5.015h5.072c-.059-1.581-.399-10.18.288-11.054.426 1.818.247 8.804.248 11.05l4.55.226c-.195-.83-.446-1.469-.316-2.28.474 1.027.574 1.363.876 2.464q2.098.072 4.196.084"/><path fill="#906331" d="M328.716 237.55c.094 1.155-3.305 5.877-4.138 7.107-.058-1.609 3.162-5.736 4.138-7.106"/><path fill="#906331" d="M345.314 237.949c1.372.916 3.395 4.542 4.219 6.038-1.55-1.08-3.246-4.305-4.219-6.038"/><path fill="#c5884d" d="M239.166 255.44c.368.512.274.6.77.63 2.222.137 9.933.039 11.379 1.376.968 2.922.215 11.156.11 14.536-2.37.007-14.588.387-15.88-.61-.322-1.533.199-4.452.431-6.059-.806-.582-.375-.469-1.324-.403 1.005-2.195-.238-3.724 1.594-6.851.613-.645 2.195-1.976 2.92-2.619"/><path fill="#906331" d="M236.246 258.059c.922 1.583.36 5.524-.27 7.254-.806-.582-.375-.469-1.324-.403 1.005-2.195-.238-3.724 1.594-6.851"/><path fill="#7d4f21" d="M246.005 264.097c-2.068.235-2.824 1.086-4.872-.242-.583-1.173 0-2.14 1.052-2.783 2.643 1.422 1.22-.347 3.303-.086.248 1.025-.732.92-.59 2.193l.46.202.267-.804c.728-.348.987-.57 1.768-.402l.287.366c-.394.895-.714 1.058-1.675 1.556"/><path fill="#c49b55" d="M326.758 247.355c1.195-.169 2.99-.575 3.972.114l.117 1.415c.313-.115.591-.392.728-.774.56-1.568 3.522-1.211 5.274-1.144.007.982-.08 2.017.28 2.91.36-.604.272-2.06.28-2.851l4.764.161c.222.554.51 1.532.9 1.845l-.165-1.494c.903-.456 3.17-.046 4.3.102l1.051 2.26.265-.035c-.185-.92-.489-1.416-.127-2.01 1.671-.19 3.763.006 5.477.108 1.75 1.104 2.443 2.85 3.182 4.762l-.982.573-.934.494c-1.087-.068-2.143.045-3.334-.028-1.668-.103-5.351-.893-6.804-.704-.38.655-.405.772-.96 1.31-.917-.078-.804-.241-1.68-.988-1.044-.198-2.114.72-3.269.78-1.21.061-1.505.43-2.338 1.226-.844-.881-1.095-1.153-2.1-1.825-2.855 1.593-4.87-2.364-7.85.221-1.265.083-.956-1.188-1.765-.974-.891.238-2.672 1.068-3.648 1.063-.78-.003-.39-.788-1.501-.916l-.656.818c-1.073.334-.11-.332-2.326-1l-.145-.423c.499-1.657 1.958-3.705 3.062-5.04 2.013.086 3.71.064 5.73.014.437.84-.22.831-.09 1.893.432-.605.903-1.232 1.292-1.863"/><path fill="#cdaa63" d="M252.722 233.137c1.664 1.394 5.487 4.375 6.895 5.728 1.796 1.767 6.515 7.49 7.628 9.798l-.184.584.122.349c-1.245.249-3.296.106-4.592.024l-.259.25.37 1.14-.09.048a25 25 0 0 0-1.143-.848c-1.004-.712-1.333-1.092-2.562-.88-.606 1.092.139 1.18-.303 1.898-.824-.516-.804-.828-1.17-1.697-.93-.464-2.276-.46-3.298-.325-.466.656-.296.99-.325 1.971l-.274.256c-.486-.483-.38-1.153-.481-2.032-.835-.319-3.29-.205-4.207-.03a46 46 0 0 0-.482 1.913l-.22-.076a19 19 0 0 0-.18-1.79c-1.225-.54-2.382.45-3.889-.534l.203-.3c1.154-2.34 1.956-4.252 2.931-6.656.383-1.811.94-5.377 1.857-6.83l.255.537c.702.089.693.069 1.34-.444.729-.695 1.368-1.32 2.058-2.054"/><path fill="#7d4f21" d="M256.001 237.715c.9 1.008 1.325 1.834 2.006 2.988.506-.377 1.184-1.304 1.61-1.838 1.796 1.767 6.515 7.49 7.628 9.798l-.184.584.122.349c-1.245.249-3.296.106-4.592.024l-.259.25.37 1.14-.09.048a25 25 0 0 0-1.143-.848c-1.004-.712-1.333-1.092-2.562-.88-.606 1.092.139 1.18-.303 1.898-.824-.516-.804-.828-1.17-1.697-.93-.464-2.276-.46-3.298-.325-.466.656-.296.99-.325 1.971l-.274.256c-.486-.483-.38-1.153-.481-2.032-.835-.319-3.29-.205-4.207-.03a46 46 0 0 0-.482 1.913l-.22-.076a19 19 0 0 0-.18-1.79c-1.225-.54-2.382.45-3.889-.534l.203-.3c1.186-.106 3.18-.159 4.18-.632l.488.292c1.37.027 2.66.073 4.031-.032l.698.007c1.012.459 2.777.33 3.94.33-.445-1.46-1.507-4.766-1.578-6.222a64 64 0 0 1 1.753 5.115c2.324-1.915-.704-3.14-.292-6.311-.095-.403-1.26-2.89-1.5-3.416"/><path fill="#c49b55" d="M259.617 238.865c1.796 1.767 6.515 7.49 7.628 9.798l-.184.584c-1.482-.226-3.361-.21-4.893-.242a159 159 0 0 0-4.161-8.302c.506-.377 1.184-1.304 1.61-1.838"/><path fill="#7d4f21" d="M259.851 240.893c1.693 1.33 2.731 3.386 3.594 5.321-1.333-.883-2.818-3.855-3.594-5.32"/><path fill="#c49b55" d="M257.5 241.13c1.004 1.555 3.155 5.615 3.714 7.327l-.145.24c-1.424.126-2.61.19-3.276-1.255 2.324-1.915-.704-3.14-.292-6.311"/><path fill="#906331" d="m249.07 235.098.254.537c.702.089.693.069 1.34-.444-.895 1.849-2.194 5.569-3.452 6.737.383-1.811.94-5.377 1.857-6.83"/><path fill="#906331" d="M252.98 248.212c-.013-1.63-.188-8.204.235-9.442l-.068.191c.453.938.538 7.825.531 9.258z"/><path fill="#7d4f21" d="M249.646 242.569q-.326 2.84-.697 5.675l-.488-.292c.207-1.75.747-3.657 1.185-5.383"/><path fill="#c49b55" d="M244.078 248.884c1.507.984 2.664-.006 3.889.533.101.689.138 1.11.18 1.791l.22.076c.154-.667.3-1.253.482-1.913.917-.175 3.372-.289 4.207.03.102.879-.005 1.549.481 2.032l.274-.256c.029-.98-.141-1.315.325-1.97 1.022-.136 2.368-.14 3.299.324.365.87.345 1.181 1.169 1.697.442-.718-.303-.806.303-1.898 1.23-.212 1.558.168 2.562.88q.584.408 1.142.848l.091-.048-.37-1.14.26-.25c1.295.082 3.346.225 4.591-.024 1.34.62 3.309 3.42 2.975 4.824-1.23.803-1.198.259-2.24.339-2.43.185-3.13.43-5.585-.057-.526.24-.282.075-.719.515-.756-.265-.478-.143-1.106-.75-1.435.203-.603 1.014-1.782.79l-.57-.519c-1.748.282-4.636 1.82-5.68 1.43-.289-.334-.8-1.12-1.167-1.04-3.053.658-3.547.178-6.438-.903-.15.098-1.293.845-1.27.846-1.48-.06-2.755-.125-4.205.103 1.425-2.064 3.119-4.002 4.682-6.29"/><path fill="#fefefe" d="M385.518 271.028c-.029-1.13-.196-2.04.342-2.986.715-.514.344-.433 1.104-.404 1.551 1.088 1.556 2.05 1.448 3.814-.813-.06-2.054-.294-2.894-.424"/><path fill="#fefefe" d="M389.616 272.132c.021-1.284-.172-1.572.419-2.597 1.99-.863 2.637 1.437 2.489 3.053-.896-.079-2.007-.302-2.908-.456"/><path fill="#fefefe" d="M382.278 270.039c-.042-1.081-.197-1.671.316-2.559l.518-.302c1.49.694 1.249 1.953 1.129 3.375z"/><path fill="#fefefe" d="M233.218 269.64c-.146-1.091-.395-1.84.108-2.769l.486-.376c1.193.618.762 1.519.585 2.721l-.057.405z"/><path fill="#fefefe" d="M229.86 267.888c.821-.547.744-.696 1.548-.69.462.64.367 1.187.382 1.996l-1.598.35z"/><path fill="#cdaa63" d="M294.716 211.665c7.588 5.63 18.846 17.526 23.792 25.638-2.677.019-6.06-.244-8.705-.59-2.278-4.446-6.54-12.754-9.507-16.679.215.823 2.256 4.42 2.76 5.35l6.013 11.207c-2.124.013-4.1.146-6.126-.493l-.554.04c-1.715.05-5.884.275-7.276-.382l-.623.108c-1.714.245-5.05.533-6.625-.14-.065-.1-.2-.131-.304-.189-1.387 1.589-5.386 1.246-7.406 1.27-2.9.414-6.422.599-9.346.751 8.554-11.619 12.76-16.41 23.907-25.89"/><path fill="#7d4f21" d="M294.49 235.864c.116-5.505-.059-11.085.121-16.575.833.971.576 14.387.502 16.467z"/><path fill="#c49b55" d="M287.561 235.535c-1.387 1.589-5.386 1.246-7.406 1.27l.427-.736c.9-.688 5.409-.467 6.98-.534"/><path fill="#906331" d="M302.389 236.137c-.61-2.498-1.293-4.833-1.618-7.382.618 1.572 1.784 5.691 2.172 7.343z"/><path fill="#906331" d="M287.561 235.535c.047-1.426.986-4.162 1.46-5.613-.132 1.974-.616 3.9-1.156 5.801-.065-.099-.2-.13-.304-.188"/><path fill="#7d4f21" d="M306.175 224.253c1.87 1.406 5.538 7.26 6.133 9.428-1.913-2.225-4.573-6.774-6.133-9.428"/><path fill="#906331" d="M288.911 220.19c.068 1.255-4.414 8.866-5.367 10.562-.103-1.92 4.247-8.692 5.367-10.561"/><path fill="#906331" d="M282.346 225.307c.16 1.212-3.67 6.127-4.6 7.402-.036-1.352 3.631-6.089 4.6-7.402"/><path fill="#c5884d" d="m327.533 254.472.47.055c.492.492.607.66 1.218 1.008.517-.344.755-.552 1.223-.949 1.28-.094 1.59.9 2.66 1.036 1.216.156.062-.55 1.706-.382.202.177 1.044.895 1.182.972 1.324.741 4.574-1.298 6.13-1.463.118.035 1.55 1.052 1.55 1.052 1.17.056.685-1.1 2.054-1.326 1.321 1.192.655.236 1.852-.05l.59.954.338.026c.164-.484.172-.497.389-.94.78.085.796.339 1.521.991 1.503.129 1.914-.232 3.347-.324.883.803.872 3.308.984 4.617-2.26-.012-6.554-.127-8.595.32 1.031.544 7.113.482 8.75.556.268 2.682.322 5.35.626 8.142-3.032-.26-8.075-.189-10.978.296 4.163.622 6.983.524 11.182.486-.009.995.097 1.89-.495 2.662-1.84.56-10.067.193-12.484.14-.002-1.873.352-10.296-1.135-11.309-7.59-5.166-6.58 7.178-6.48 11.189a528 528 0 0 1-18.006-.345c-.021-1.484 1.029-16.169 2.562-16.943.456-.23 6.13.714 7.839-.471"/><path fill="#7d4f21" d="M319.767 261.704c3.497.364 7.717.264 11.327.35.016 1.332.058 2.488-.081 3.82l-11.61-.052c.168-1.268.258-2.82.364-4.118"/><path fill="#c5884d" d="M327.058 262.339c1.164.098 1.279.069 2 .742.272.926.082 1.283-.166 2.216-1.005.211-1.126.186-1.781-.5-.295-.999-.17-1.392-.053-2.458"/><path fill="#c5884d" d="M323.635 262.146c.9 1.121 1.044 2.403-.109 3.386-.724-.54-1.01-.833-1.103-1.737.237-.89.527-1.035 1.212-1.649"/><path fill="#906331" d="M350.301 262.481c1.378.064 2.747-.104 4.125-.225-.691.896-.967 1.165-1.382 2.19.112.777-.026.41.559 1.08.579.073.298-.02.833.304l-.249.91c-.778-.202-.885-.322-1.594-.7-1.374.309-1.924 1.306-3.174.436-.77-1.582-.082-2.76.882-3.995"/><path fill="#7d4f21" d="M318.235 267.923c2.262-.155 11.555-.566 12.903.56-3.808.2-9.288.682-12.903-.56"/><path fill="#7d4f21" d="M318.798 259.149c2.197-.217 10.99-.259 12.632.668-1.849.334-11.456.365-12.632-.668"/><path fill="#7d4f21" d="M345.565 262.165c1.674.872 3.552 3.39 1.283 4.465-.918-.076-1.028-.268-1.719-.871.143-.392.132-.307.404-.649.669.597.897.71 1.756.727l.122-.403c-.413-1.49-.94-2.052-1.846-3.269"/><path fill="#c5884d" d="M282.113 247.18c.497.941.72 1.626 1.617 2.163 1.53.014 1.787-2.196 3.516-1.229.772.432 1.643 1.257 2.542 1.783.625-.48 1.185-.901 1.772-1.431.776.708 1.71 1.618 2.55 2.21 1.166-.76 1.801-1.398 3.121-1.384.678.312.636.301 1.16.84 2.135-.333 2.085-2.1 4.762-1.44 1.602 2.166 1.165 17.249 1.032 20.584-3.877.043-9.224.19-13.04-.303.11-3.272.522-13.191-1.412-14.66-10.177-7.722-8.287 12.194-8.435 14.755l-11.475-.033c-.3-3.719-.803-8.63-.798-12.281 1.191-.554 1.86-.868 2.992-1.588.312 3.153.274 2.361-.88 5.148.635.318.685.246 1.416.226l.157-.237c.616-.178.33-.227.882.071.938.073 2.185.045 2.936.527-.2 1.303-.736 3.37-.046 4.403.788-.01.443.115 1.057-.422.778-2.61-.754-2.457 1.433-4.908-.559-.598-.961-.696-1.72-1.083.527-1.883 1.152-2.772-.076-4.451l-.722.116c.028.945.166 3.021-.032 3.912-.324 1.46-2.058 1.325-3.106.406-.246-.914.423-2.511.733-3.48-2.834-1.545-2.865-2.033-4.208-5.044.486-.906.977-1.856 1.483-2.747l1.761 2.372 4.856-2.046c.837.484 1.221.842 2.165.726.96-.43 1.212-.75 2.007-1.475"/><path fill="#7d4f21" d="m272.553 260.54.157-.237c.616-.178.33-.227.882.071l-.438.364c.157 1.865 1.268 3.251.556 4.69-.85.244-.44.251-1.27-.003-.902-1.418-.095-3.106.113-4.885"/><path fill="#7d4f21" d="M295.767 258.732c.363.405.445 1.261.604 1.916 1.102.943 2.901-.902 4.852.16.091.81.144.416-.251 1.205-1.371-.01-4.888.126-6.003-.486l.57-.633c-.786-1.286-.704-1.131.228-2.162"/><path fill="#7d4f21" d="M299.071 262.581c1.14.61 1.15 1.908 1.52 3.162-.842-.1-.843-.035-1.51-.526-.387-.75-.127-1.747-.01-2.636"/><path fill="#c49b55" d="M291.006 237.52a12.9 12.9 0 0 1 4.16-.023c2.586.022 5.276 0 7.847.179l.503.133c1.864-.27 5.39-.334 6.844.955l.298-.395c1.62-.594 6.51-.352 8.454-.32 1.034 1.58 1.794 2.91 2.71 4.567-1.918 2.948-2.984 4.874-6.588 3.751-.5-.156-1.29.852-1.642 1.207-.772-.79-.992-1.156-1.957-1.359-.68.452-.766.574-1.569.766-1-.268-1.157-.738-1.883-1.64l-.555-.038c-.878.485-1.007 1.253-1.598 1.942-.79.922-1.066-.837-2.299-.733-1.59.133-3.66 1.302-5.046 1.368-.387-.542-.352-.584-.929-.883-.913.185-2.722 1.309-3.62 1.814-.773-.127-1.96-1.552-2.547-2.163-2.223 2.194-3.008.985-5.212-.518-.735.563-1.462 1.195-2.173 1.792l-1.645-2.627-2.812 2.029c-.732-.772-.793-1.105-1.674-1.359-1.145 1.208-1.56 1.502-3.049.786-.763.394-.782.734-1.334 1.578-.863-1.124-1.537-1.863-2.496-2.898-.546.975-.85 1.677-1.673 2.436-.93-.187-.052-.783-1.21-1.743-.73.085-1.157.22-1.808-.104-.201-1.383 3.085-6.418 3.942-7.754a391 391 0 0 1 8.949-.276c-.258.927-.306 1.154-.42 2.107.46-.448.725-1.462.97-2.138 2.186-.408 4.502-.393 6.715-.387.115.156.29.445.432.52 1.038-.734 2.58-.555 3.915-.571"/><path fill="#906331" d="M291.006 237.52a12.9 12.9 0 0 1 4.16-.023c.01 2.088-.037 3.365-.251 5.435-.306-2.11-.381-3.23-.421-5.37z"/><path fill="#7d4f21" d="m303.013 237.676.503.133c.3.86.651 2.029.457 2.908-.571-.736-.75-2.08-.96-3.041"/><path fill="#906331" d="m310.36 238.764.298-.395c.47 1.013.942 1.764.961 2.863-.603-.297-1.027-1.79-1.259-2.468"/><path fill="#906331" d="M286.659 237.572c.115.156.29.445.432.52.078 1.316-.39 2.554-.77 3.81.041-1.368.216-2.946.338-4.33"/><path fill="#c5884d" d="M370.338 258.263c.763.417 1.143.692 2.01.829 2.23-1.268 6.317-.25 8.495.894.355 2.672.696 10.749.42 13.4-.61.345-1.363.159-2.11.09q-6.113-.3-12.212-.826c.01-2.449.011-12.082 1.275-13.717.406.164.593.226 1.016.338z"/><path fill="#7d4f21" d="m374.293 263.198 4.093.112c-.186 1.501-.187 3.151-.225 4.674-.896.125-2.873.062-3.86.06z"/><path fill="#033a5b" d="M93.827 396.846c-4.923-4.704-9.378-9.651-13.484-15.087-8.947-11.846-28.346-43.72-28.747-57.993-.202-7.159 2.473-14.694 4.52-21.48 8.653-28.689 21.976-55.75 42.804-77.579 21.017-22.026 49.463-31.464 79.41-32.089 19.39-.404 42.761 3.456 57.219 17.372a31.12 31.12 0 0 1 9.622 22.095c.247 14.08-9.485 27.618-24.387 27.815-4.133.055-8.391-1.428-12.04-3.283l.093-.686c4.395 1.415 7.648 1.3 11.768-.803 9.262-4.728 14.05-15.678 8.56-25.132-15.087-25.98-55.752-22.977-78.605-10.148-29.938 16.808-48.085 48.583-58.112 80.417-9.767 31.846-7.434 64.845 1.38 96.581"/><path fill="#31b7b3" d="M199.073 232.028q.772-.067 1.545-.1c8.898-.368 13.05 2.545 19.356 8.343-3.117-.913-5.35-1.37-8.648-1.458a29.55 29.55 0 0 0-21.242 8.008c-29.714 28.228-12.575 77.143 10.822 103.272 5.011 5.596 10.476 10.156 15.619 15.547.66 23.347 9.956 39.27 23.603 57.355l-7.64-3.115c-19.776-8.124-36.18-16.417-52.895-29.949-19.251-15.634-34.526-40.178-36.764-65.211-3.083-34.486 16.93-88.67 56.244-92.692"/><path fill="#1e8385" d="M224.428 371.898c3.089 1.35 6.48 3.8 9.396 5.625a158 158 0 0 0 12.972 7.397c29.84 15.19 61.942 22.646 95.376 17.03 11.439-1.92 22.517-5.509 33.963-7.327 5.874-.933 12.066-1.048 18.007-1.054-8.827 8.963-15.395 15.117-25.137 23.13a201.4 201.4 0 0 1-55.107 31.252c-2.694 1.038-9.335 3.675-11.797 4.05-10 1.528-25.825-7.537-33.957-13.217-17.49-12.215-33.274-31.006-40.146-51.379-1.624-4.812-2.691-10.488-3.57-15.507"/><path fill="#1e8385" d="M314.29 147.294a39 39 0 0 1 2.196-8.587c5.902-15.374 20.641-19.329 35.222-13.7a203 203 0 0 1-10.875 2.328c.87.322 2.466.775 2.949 1.472-.522.62-.593.452-1.593.684-1.49.232-3.372-.067-4.275.483 1.06.35 2.01.623 3.011 1.125-5.407 1.389-8.854 1.274-14.089 3.679 2.443-.122 4.714-.239 7.166-.221-4.196 2.303-7.945 4.632-11.65 7.719 1.875-.476 3.58-.92 5.484-1.261-3.132 2.283-5.133 3.762-7.926 6.506 18.677-9.577 34.197-6.073 44.771 12.713-4.147-1.396-7.06-3.399-10.628-5.85.815 1.756 1.536 3.341 2.252 5.139-2.58-2.462-5.815-5.73-8.76-7.637 1.115 1.705 2.296 3.453 3.38 5.17-3.393-1.737-6.731-4.69-9.893-6.892 1.59 2.054 2.801 3.535 4.107 5.797-4.31-2.072-8.28-4.562-12.58-6.656a224 224 0 0 0 5.235 4.969c-6.042-1.268-10.257-2.395-16.405-1.232 8.147 1.483 14.28 4.243 19.102 11.283a29.5 29.5 0 0 1 4.215 9.399c5.687.198 9.78 1.571 14.138 5.384-1.136-2.095-2.482-3.373-4.138-5.075 1.433.586 2.383 1.052 3.757 1.766-2.487-2.629-4.38-4.325-7.217-6.669l5.013 1.22c-1.674-1.219-2.067-1.425-3.869-2.3-1.36-.662-4.36-1.437-5.217-2.153l1.011-.159.182-.7-4.185-.473c1.493-.417 2.374-.672 3.912-.893-2.36-.887-5.178-1.885-7.452-2.91 12.23-.782 21.428 2.03 22.329 16.148q.065 1.078.096 2.157c6.46-10.07 14.605-13.752 25.315-6.752q1.4.925 2.78 1.881a75 75 0 0 1-7.585-1.094l2.584 2.311q-2.87-.9-5.689-1.952c.75.698 1.09.744 1.209 1.532-.91.628-6.34-.518-8.07-.51 1.714.711 3.406 1.263 5.085 1.943-1.812.082-6.913.327-8.272 1.49l.098.257 1.418.198.047.249c-1.318.757-4.112 1.553-5.662 2.053 4.6-.132 8.413-.303 12.819 1.378 7.45 2.842 10.805 10.214 11.987 17.654-1.968-2.411-3.606-4.38-5.33-6.98.099.789.3 1.426-.076 2.079-1.137-.505-2.176-3.652-2.873-4.017.106.848.364 1.424-.005 1.938-1.051-.32-3.51-4.25-4.305-5.408.567 1.568 1.153 3.13 1.634 4.726-2.315-2.216-3.72-4.79-6.185-7.094q1.125 2.24 2.214 4.497c-3.622-2.315-5.314-3.39-9.453-4.747 1.736 1.335 3.37 2.544 4.873 4.153 6.409 6.864 6.35 15.794 1.13 23.284-.281-2.88-.46-5.037-.434-7.965-.438.433-.989 1.027-1.467 1.383.003-3.113.08-6.721-.096-9.786-.584 1.917-1.043 3.4-1.799 5.246-.08-3.625-.258-6.573-.74-10.207-.157 1.27-.194 2.412-.75 3.548l-.398.1c-.586-.577-.58-.743-.875-1.505-1.123 1.832-3.185 3.613-5.375 2.22-1.43-.91-1.61-2.284-1.97-3.807a349 349 0 0 0-1.751 3.565q-1.48 3.22-2.909 6.461c-5.225 13.95-6.67 19.15-8.402 33.644-1.56-1.563-3.383-3.125-5.042-4.604-1.05-1.001-1.358-1.299-2.613-2.096-.666-.372-.363-.142-.791-.893-.57-.904-.527-.903-1.364-1.531l-.585-.09-.275.327c.208 1.014.443 1.097 1.258 1.937-1.497 1.244-3.393 2.735-4.756 4.075l-1.35 1.403c-.606.598-1.398 1.434-2.073 1.912-.96 1.096-4.385 5.33-5.509 5.59l-.25-.33c.472-1.014 1.099-6.88 1.23-8.398 1.478-17.265.66-44.166-5.033-60.632a23.8 23.8 0 0 0-1.83-5.13c-.694.215-1.13 3.761-2.617 4.606-5.388 3.06-8.866-.511-8.508-5.821-.672.815-2.076 4.272-2.527 5.33-.355-1.833-.822-3.79-1.222-5.627-.61 2.475-1.673 9.82-2.684 11.382l-.411.073c-.983-1.187-1.255-3.87-1.51-5.43-.82 4.948-1.707 10.133-2.318 15.095-.603-1.53-.964-2.878-1.687-4.42-.694 4.701-1.251 7.776-2.51 12.382-5.887-13.27-2.505-28.256 10.104-36.205 2.195-1.383 4.662-2.284 6.934-3.542l.246-.138c-7.608 1.288-9.333 2.149-16.286 5.275 1.22-1.904 2.258-3.74 3.37-5.702-3.21 2.885-6.777 6.172-10.266 8.681.975-2.327 1.861-4.05 3.021-6.269-2.968 2.849-5.45 5.917-8.58 8.704.785-2.051 1.754-4.193 2.628-6.222-2.57 2.637-4.965 6.007-7.198 8.98.388-1.726.908-3.564 1.362-5.286-2.701 3.2-6.064 5.823-9.354 8.386 3.176-11.097 11.456-21.142 23.16-23.362 6.736-1.279 11.888-.466 18.35 1.339-2.933-1.816-5.86-3.291-8.922-4.867 1.973.276 4.202.407 6.204.57-3.7-1.837-9.486-4.083-13.405-5.232q3.723-.553 7.454-1.063c-4.196-1.33-9.909-1.046-14.343-1.01 1.78-.996 3.919-2.009 5.76-2.936-3.467.492-6.674 1.315-10.234 1.68 1.37-.937 2.975-1.887 4.4-2.772q-6.094.18-12.189.11c8.293-4.373 16.166-7.446 25.55-3.891 8.308 3.147 12.298 10.252 15.714 17.923"/><path fill="#fefefe" d="M324.767 163.186c.717.922 1.344 1.922 2.337 2.469l.44-.112c.51-1.078.154-2.848.016-4.099 1.843 4.087 3.748 8.718 6.218 12.39-.22-2.568-.418-4.978-.52-7.559.955 2.488 2.416 6.763 3.467 9.017-3.759 2.431-5.52 3.762-8.407 7.157 2.877-.92 5.443-1.732 8.17-3.098-.79 1.016-1.575 2.043-2.398 3.03l4.77-2.884-.035 1.045-.486.633c.62.14 1.657-.419 2.377-.701 1.04 2.273 2.247 4.752 3.063 7.094-4.554 5.343-5.41 8.55-5.431 15.649 1.083-1.695 2.717-4.46 4.05-5.835.407.419.277.237.484.804 1.174-.861 4.035-6.656 5.17-8.415l-1.007 5.17c1.647-2.088 3.718-5.43 5.128-7.754l-.455 3.953c1.04-1.15 2.248-2.43 3.215-3.618.281 1.095.413 1.833.947 2.84l-1.395 2.633c.755.616 1.772 1.523 2.614 1.933q-1.48 3.22-2.909 6.461c-5.225 13.95-6.67 19.15-8.402 33.644-1.56-1.563-3.383-3.125-5.042-4.604-1.05-1.001-1.358-1.299-2.613-2.096-.666-.372-.363-.142-.791-.893-.57-.904-.527-.903-1.364-1.531l-.585-.09-.275.327c.208 1.014.443 1.097 1.258 1.937-1.497 1.244-3.393 2.735-4.756 4.075l-1.35 1.403c-.606.598-1.398 1.434-2.073 1.912-.96 1.096-4.385 5.33-5.509 5.59l-.25-.33c.472-1.014 1.099-6.88 1.23-8.398 1.478-17.265.66-44.166-5.033-60.632l.424-.2c1.171-1.21 2.32-1.62 3.942-1.37-.132-1.342-.724-2.301-1.433-3.404 1.728-1.178 2.174-1.815 3.2-3.543"/><path fill="#c49b55" d="M319.059 171.503c1.171-1.21 2.32-1.62 3.942-1.37l.065.328c1.62 3.35 2.168 8.084 3.195 10.26l.291 1.328 2.04 9.995.079.449c.977 4.569 1.055 8.653 1.91 12.812l.034.36c.652 4.863.326 10.662.97 14.867l-.036 1.474c.015 2.079-.128 8.5.07 10.152l-1.348 1.403c-.607.598-1.399 1.434-2.074 1.912-.96 1.096-4.385 5.33-5.509 5.59l-.25-.33c.472-1.014 1.099-6.88 1.23-8.398 1.478-17.265.66-44.166-5.033-60.632z"/><path fill="#906331" d="M324.597 221.595c2.617-.995 4.158-1.652 6.988-1.063l-.036 1.474c-2.284-.061-4.665-.257-6.952-.41"/><path fill="#906331" d="M330.615 205.666c-.325 2.174-3.51 1.946-4.558.83l.165-.416c1.42-.728 2.796-.72 4.358-.775z"/><path fill="#906331" d="M323.095 234.659c2.229-.515 4.896-.867 7.176-1.098-.607.598-1.399 1.434-2.074 1.912-1.538-.428-3.488-.612-5.102-.814"/><path fill="#906331" d="M324.246 193.545c1.661-.995 2.448-1.628 4.347-1.501l.078.449c-.621 1.84-2.787 1.197-4.425 1.052"/><path fill="#c5884d" d="M321.426 182.5c1.736-.899 2.96-1.337 4.835-1.78l.291 1.329c-1.713.454-3.374.453-5.126.45"/><path fill="#906331" d="M319.059 171.503c1.171-1.21 2.32-1.62 3.942-1.37l.065.328c-1.264.976-2.4 1.869-4.007 1.042"/><path fill="#c49b55" d="M350.836 200.065c1.492.19 2.324.202 3.354 1.324-5.225 13.95-6.67 19.15-8.402 33.644-1.56-1.563-3.383-3.125-5.042-4.604.508-1.534 1.099-4.56 1.454-6.197l.082-.932c.567-1.211 2.308-7.285 2.81-8.937 1.81-5.133 3.466-9.358 5.744-14.298"/><path fill="#906331" d="M342.282 223.3c1.874.251 3.7 1.333 5.356 2.234l-5.438-1.302z"/><path fill="#7d4f21" d="M345.092 214.363c1.522-.023 2.025.04 3.278.896-1.291-.217-2.135-.256-3.278-.896"/><path fill="#cdaa63" d="M354.485 192.995c.755.616 1.772 1.523 2.614 1.933q-1.48 3.22-2.909 6.461c-1.03-1.122-1.862-1.133-3.354-1.324 1.213-2.549 2.187-4.65 3.649-7.07"/><path fill="#906331" d="M337.342 227.44c.62-.69.961-1.224 1.83-1.512l.386.192c-.117 1.127-.556 1.4-1.425 2.213-.666-.372-.363-.142-.791-.893"/><path fill="#7d4f21" d="M310.95 157.678c3.321-4.165 4.606-4.161 8.406-.576 4.681.769 5.17 1.274 5.411 6.084-1.025 1.728-1.47 2.365-3.199 3.543.71 1.103 1.301 2.062 1.433 3.404-1.622-.25-2.77.16-3.942 1.37l-.424.2a23.8 23.8 0 0 0-1.83-5.13c-.694.215-1.13 3.761-2.617 4.606-5.388 3.06-8.866-.511-8.508-5.821.447-.705.634-1.07.993-1.826.67-1.504 3.151-4.445 4.278-5.854"/><path fill="#cdaa63" d="M321.568 166.729c.71 1.103 1.301 2.062 1.433 3.404-1.622-.25-2.77.16-3.942 1.37l-.424.2a23.8 23.8 0 0 0-1.83-5.13c1.694.489 3.07.697 4.763.156"/><path fill="#fefefe" d="M306.673 163.532c.67-1.504 3.151-4.445 4.278-5.854.137 1.244.308 2.568.395 3.81-2.295.394-2.805.552-4.673 2.044"/><path fill="#7d4f21" d="M356.03 184.987c1.939-.743 2.91-.696 4.921-.667 1.113.668 1.307.739 2.164 1.672.936 1.446 1.18 1.97 1.854 3.553.752 1.512.84 1.792 1.226 3.405-1.123 1.832-3.185 3.613-5.375 2.22-1.43-.91-1.61-2.284-1.97-3.807a349 349 0 0 0-1.751 3.565c-.842-.41-1.859-1.317-2.614-1.933l1.395-2.633c-.534-1.007-.666-1.745-.947-2.84.294-.46.86-1.953 1.098-2.535"/><path fill="#c49b55" d="M355.88 190.362c.522.2 2.712.864 2.97 1.001a349 349 0 0 0-1.751 3.565c-.842-.41-1.859-1.317-2.614-1.933z"/><path fill="#fefefe" d="M363.115 185.992c.936 1.446 1.18 1.97 1.854 3.553-.87-.323-1.056-.346-1.763-.984-.423-.882-.212-1.573-.091-2.569"/><path fill="#e0eff0" d="m337.914 129.974-1.805-.145.087-.125-.222.047.072-.118c2.333-.324 3.801-.294 6.143-.142-1.49.232-3.372-.067-4.275.483"/><path fill="#e0eff0" d="M338.86 179.497c.772-.499 1.648-1.098 2.428-1.558-.696.753-1.732 1.946-2.463 2.603z"/><path fill="#e0eff0" d="M348.366 165.039c.898.138 1.282.063 1.945.556-.74.298-1.323.186-2.127.143z"/><path fill="#fefefe" d="m348.897 179.28.116.248c-.556.677-2.294 1.666-3.116 2.184 5.068-.38 7.027-.59 12.009.535-2.204.097-3.51.184-5.672.536-3.66 1.039-4.85 1.78-7.762 4.172.445-2.39.505-4.046.496-6.459 1.069-.408 2.783-.873 3.93-1.217"/><path fill="#31b7b3" d="M199.385 286.75c6.383.823 13.112 1.318 19.007 1.714 8.922.597 51.558-.03 56.278 4.39.985 3.446-10.483 4.01-11.947 8.098.27 2.046 2.84 2.686 4.616 2.927 15.182 2.06 30.563.79 45.82 2.063.548 1.25 1.11 2.878 2.148 3.788 4.064 3.56 51.58 2.772 58.792 2.15 2.955-.256 11.423-.87 13.162-3.426 1.294-1.901-1.154-3.098-1.372-4.714-.03-.218-.015-.243.165-.389 2.111-1.726 20.909-1.513 24.702-1.598l-.688 3.607c-1.798 8.096-3.656 14.055-7.157 21.51-34.031-14.756-74.492-4.968-110.048-4.106-16.333.396-33.044-1.454-48.576-6.691a122.6 122.6 0 0 1-28.237-13.827c-5.145-3.394-8.883-6.57-14.459-9.569-.89-1.928-1.523-3.917-2.206-5.926"/><path fill="#fefefe" d="M222.713 293.427c3.857.045 31.407-.316 31.078 5.232-2.379 4.26-12.444 4.876-11.837 8.82 3.482 3.457 20.667 4.72 25.999 5.24q11.089 1.123 22.199 2.016c3.025.214 9.709.389 12.384.885l-.098.195c-11.141 1.052-55.523.261-63.08-6.322-.626-.544-1.163-1.257-1.135-2.13.038-1.233 1.172-2.329 2.09-3.02 3.178-2.393 7.083-2.92 10.086-5.75-5.954-2.504-23.104-3.801-30.38-4.739.699-.44 1.825-.381 2.694-.427"/><path fill="#a3ebec" d="M215.375 293.373c2.52-.172 4.829-.3 7.338.054-.87.046-1.995-.012-2.694.427-1.69-.073-2.964-.247-4.644-.481"/><path fill="#cdaa63" d="M289.488 79.922c16.327-2.564 36.4 16.347 48.388 25.876 20.442 16.251 37.003 24.21 63.179 25.801 1.084 5.66 1.07 17.625.948 23.5-.698 33.808-7.71 61.953-19.966 93.14-.962-1.101-1.976-2.422-2.903-3.575a243.8 243.8 0 0 0 19.007-84.617c.317-8.067.099-16.662-.206-24.748-24.415-1.715-38.772-9.062-58.207-23.19-13.057-9.415-34.038-32.694-52.029-28.17-15.449 3.884-32.703 18.197-45.753 27.351-19.357 13.578-35.055 21.557-58.818 23.073-1.194 16.459-.905 36.78 2.324 52.874l-4.2.286c-.47-9.182-1.897-18.288-2.217-27.496-.342-9.804.32-19.597.67-29.396 31.637.302 54.427-18.443 78.798-35.797 9.574-6.817 19.021-13.37 30.985-14.912"/><path fill="#cdaa63" d="M135.78 72.638c8.45-1.237 16.292 4.646 17.468 13.105 1.176 8.46-4.764 16.258-13.232 17.372-8.38 1.103-16.082-4.763-17.246-13.136s4.646-16.116 13.01-17.34"/><path fill="#fefefe" d="M136.111 78.725a9.26 9.26 0 0 1 10.54 12.186 9.26 9.26 0 1 1-10.54-12.186"/><path fill="#1e8385" d="M240.394 176.746c11.18-3.52 19.216 1.869 19.727 13.58 4.829-10.975 12.737-13.441 22.763-6.748-2.047-.1-4.169-.234-6.212-.284l2.057 1.433c-1.563-.334-3.279-.667-4.816-1.062 1.155.716 1.848 1.124 3.09 1.724-3.324-.304-5.617-.485-8.993-.2 1.29.311 2.94.661 4.172 1.067-3.128.842-4.979 1.426-7.886 2.844 1.56-.245 3.096-.52 4.674-.611-2.102.878-4.285 1.756-6.355 2.693 12.92-2.363 19.213 1.24 22.761 13.968-.817-.868-3.749-4.117-4.52-4.61-.185.62-.135.426-.132 1.096l-.31.106c-1.128-1.44-2.013-2.93-3.2-4.246l1.467 3.66c-1.755-1.724-2.965-3.247-4.51-5.146l1.523 4.01c-1.898-1.927-3.945-4.12-6.03-5.804l1.983 3.086c-4.214-2.093-4.993-2.368-9.64-3.389 9.677 5.051 13.521 11.753 8.47 22.384-.483-2.003-.607-4.89-.933-5.98l-.258-.064-.643.553c-.989-.824-.894-5.195-1.189-6.74l-1.17 3.728c-.352-1.916-.386-5.637-1.38-6.709-.362.59-.253.472-.406 1.2l-.271-.026c-1.31-2.077-2.145-4.14-3.38-6.15-.414 1.115-.379 1.223-.378 2.442l-.695-.685c-.483 2.353-.592 2.398-2.66 3.514-2.482-.123-2.612-.802-3.42-2.964l-2.165 2.431c.086-.885.145-1.19.023-2.094l-.31.029c-.528.695-2.433 5.024-2.963 6.16-.007-1.511.128-3.007.239-4.514-.72 1.544-2.451 6.513-3.503 7.206-.289-.584-.133-.429-.59-.834-.653.694-2.305 4.161-2.867 5.223-1.39-9.925 3.218-16.796 13.077-18.991l.028-.353c-3.075-.267-5.301.123-8.318.643 1.116-1.07 2.13-1.75 3.282-2.711-2.9 1.178-5.122 2.345-7.9 3.789l2.858-3.225c-1.015.57-4.024 2.45-4.96 2.592.163-.668.148-.511.526-1.133l-.265-.17c-1.15.574-2.84 2.201-3.869 3.113l1.34-2.65c-2.32 1.451-3.812 2.218-6.387 3.2 8.665-10.74 13.709-12.157 26.03-5.861a90 90 0 0 0-4.36-4.085l2.967.886c-2.281-2.09-3.988-3.106-6.33-4.924l4.44.857c-2.05-1.124-6.148-2.067-6.817-2.623q.595-.221 1.197-.426c-1.1-.849-2.992-.235-3.449-.867l.556-.617c-.747-.601-3.732-1.396-4.81-1.721"/><path fill="#7d4f21" d="M257.65 194.814c1 1.028 1.593 1.688 2.124 3.052-.483 2.353-.592 2.398-2.66 3.514-2.482-.123-2.612-.802-3.42-2.964.932-2.732 1.292-2.798 3.955-3.602"/><path fill="#d7d28c" d="M257.65 194.814c.886-.334 1.053-.47 1.984-.246.757.489.81.744 1.214 1.54-.415 1.116-.38 1.224-.379 2.443l-.695-.685c-.531-1.364-1.125-2.024-2.125-3.052"/><path fill="#2e8e8c" d="M254.663 192.68c1.242-.138 2.432-.379 3.623-.09l.052.09-.196-.079-.342.311c-1.409.207-1.744.221-3.165.12z"/><path fill="#cdaa63" d="M92.29 175.15c2.348-.073 3.189 1.322 1.897 3.3-1.7 2.603-3.585 3.14-6.38 3.815-.822 3.758-2.2 8.287-3.245 12.055 2.183 2.042 4.741 4.016 3.372 7.333-2.836 2.6-10.257-4.427-12.714-6.396-3.344-2.969-12.407-8.09-13.298-12.406-.119-.58.06-1.054.398-1.53 2.403-3.393 25.057-5.625 29.97-6.172"/><path fill="#fefefe" d="M79.509 183.456c.913-.162 1.021-.16 1.496.501.331 2.025-.575 4.644-1.126 6.693-1.17-.752-2.29-1.583-3.415-2.399l-5.056-3.816z"/><path fill="#cdaa63" d="M158.003 57.104c4.626.37 19.038 13.897 23.113 17.156 1.077.862 2.53 2.855 1.805 4.373-2.511 2.147-5.671-.136-7.633-1.761l-2.958 1.52c-2.488 1.346-4.913 2.82-7.53 3.873.022 1.055.051 2.117-.013 3.171-.078 1.275-.358 2.68-1.407 3.526-.646.52-1.531.69-2.342.593-.47-.056-.908-.253-1.192-.632-1.95-2.601-4.521-25.617-3.808-29.588.213-1.18 1.035-1.61 1.965-2.23"/><path fill="#fefefe" d="M162.056 65.873c1.251.639 7.001 5.82 8.447 7.096l-2.151 1.28-4.672 2.376c-.766-3.354-1.256-7.324-1.624-10.752"/><path fill="#cdaa63" d="M90.935 118.115c1.313.293 2.91.701 3.087 2.269.458 4.051-3.907 9.55-6.023 12.628 2.4 1.184 4.776 2.645 7.036 4.074 1.35-2.69 4.236-8.952 7.825-8.574 3.134 2.097-1.315 8.87-2.657 11.055l3.702 2.4c2.56-3.17 4.893-9.17 8.843-10.68 1.065-.407 1.834.058 2.781.532 1.975 3.517-7.422 14.942-9.671 17.91-8.231-3.667-18.823-9.47-25.845-15.087 2.244-4.43 7.693-12.84 10.922-16.527"/><path fill="#cdaa63" d="M61.062 204.103c5.605.098 4.515 2.676 2.175 6.212-1.484 2.243-3.966 7.745-.722 9.55 4.78.017 7.917-17.011 15.461-15.801 11.874 1.905 10.096 19.546 2.473 25.032-1.242.246-1.95.169-3.125-.26-2.335-2.445 1.872-6.535 2.843-8.945 1.01-2.032 1.594-7.042-.622-8.596-3.83-2.688-7.058 7.368-8.683 9.582-2.623 3.575-4.03 5.103-8.363 6.064-7.213-2.17-8.348-11.038-5.48-17.084 1.158-2.443 2.174-3.808 4.043-5.754"/><path fill="#cdaa63" d="M192.148 43.545c4.46.1 11.227 2.683 3.57 5.632-2.49.96-9.264-.097-9.985 4.287 1.63 4.179 18.992-.082 20.025 7.589 1.264 9.398-5.234 11.957-13.042 13.325-2.323.139-8.072-.82-7.742-3.906 2.715-4.187 13.542.338 14.496-5.653-1.953-6.988-17.86 2.297-19.158-8.874-.915-7.866 4.859-11.597 11.836-12.4"/><path fill="#cdaa63" d="M112.931 93.278c3.393.085 4.804 2.818 2.334 5.162-2.512 2.276-6.864 3.79-7.708 7.42-1.098 4.72 2.479 10.154 7.021 11.512 1.052.314 3.93.492 4.975.113 3.328-1.208 7.516-10.434 11.188-9.631 1.918 1.536.474 5.04-.24 6.896-5.851 11.96-22.799 12.657-27.834.069a16.01 16.01 0 0 1 .169-12.254c2.033-4.673 5.478-7.439 10.095-9.287"/><path fill="#cdaa63" d="M76.55 144.286c6.963 1.37 1.32 11.013-.444 14.876 2.095.712 4.205 1.476 6.295 2.211 1.322-2.922 3.117-11.068 7.179-10.204 3.816.812-.866 10.076-1.752 12.01 1.998.93 4.991 1.921 7.122 2.696 3.914 1.866 3.093 3.849.865 6.743-9.19-3.305-18.474-5.011-26.707-10.831 1.966-6.128 3.962-12.033 7.443-17.501"/><path fill="#cdaa63" d="M223.318 36.233c2.14-.404 6.988.206 4.51 3.576-1.579 2.148-5.21 2.435-7.71 2.751 1.113 6.32 2.371 12.696 2.886 19.085.163 2.032.533 4.581-1.768 5.327-2.99.968-3.772-1.805-4.434-3.908-1.206-6.288-2.316-13-2.776-19.39-1.13.25-2.26.314-3.415.506-1.825.302-5.576.612-6.011-1.891-.422-2.423 5.103-3.884 6.926-4.308 3.825-.889 7.867-1.35 11.792-1.748"/><path fill="#c49b55" d="m259.774 197.866.695.685c.09 2.817.173 8.185-.18 10.952.337 9.726.987 18.011 3.799 27.427.513 1.72 1.233 4.587 1.88 6.172-.445.869-.132.669-.808.997a509 509 0 0 1-6.18-7.112c.533-1.504-1.578-9.035-1.762-11.178-.573-6.68-.482-14.672.272-21.258.197-1.373.583-2.152-.376-3.171 2.068-1.116 2.177-1.16 2.66-3.514"/><path fill="#cdaa63" d="m259.774 197.866.695.685c.09 2.817.173 8.185-.18 10.952-.262-1.879.37-3.504-.426-4.623-.744-.471-1.46-.34-2.373-.33.197-1.372.583-2.15-.376-3.17 2.068-1.116 2.177-1.16 2.66-3.514"/><path fill="#906331" d="m258.917 227.4 1.131.217.132.258-.84.561c-.746-.126-.603.01-1.147-.381z"/><path fill="#cdaa63" d="M196.135 251.828c.414.243.832.593 1.015 1.047 2.301 5.69 5.344 11.47 7.502 17.175-.535.647-.786.572-1.698.928l-2.497.974c-2.463-5.757-7.404-14.17-4.322-20.124"/><path fill="#cdaa63" d="M204.62 243.648c.58 3.594 1.619 9.782 4.217 12.283l-.093.686a16.5 16.5 0 0 1-3.53-2.34c-4.084-3.53-3.866-6.814-.594-10.629"/><path fill="#cdaa63" d="M207.467 260.123c1.468.47 3.264 1.25 4.726 1.842.749 1.31 2.17 3.67 2.383 5.125l-.292.37-3.045.932c-1.5-2.662-2.632-5.444-3.772-8.269"/></svg>