<?xml version="1.0" encoding="utf-8" ?><svg xmlns="http://www.w3.org/2000/svg" xmlns:xlink="http://www.w3.org/1999/xlink" width="665" height="466" viewBox="0 0 665 466"><clipPath id="cl_6"><rect width="665" height="466"/></clipPath><g clip-path="url(#cl_6)"><path fill="#245486" transform="scale(0.455792 0.455523)" d="M48.3315 649.31C38.5392 624.939 35.9558 603.715 34.2577 577.339C29.5559 506.513 41.3221 435.56 68.6336 370.046C180.913 107.562 513.479 -10.0161 773.033 96.0668C831.727 120.056 903.177 171.049 930.067 230.218C933.467 246.288 923.908 253.211 912.229 241.415C909.509 237.083 903.077 229.885 899.622 225.859C877.667 200.272 853.937 192.215 822.73 182.606C838.241 192.208 846.019 199.013 859.374 211.613C889.424 242.723 911.078 282.639 911.098 326.844C911.102 337.259 904.94 360.615 892.421 345.167C887.524 339.125 882.963 332.022 875.365 329.307C877.242 307.783 876.43 298.403 867.049 278.989C867.256 283.311 867.451 286.482 868.062 290.75C859.181 293.865 845.392 298.884 835.873 298.597L835.111 288.563C833.013 276.845 830.343 265.554 826.355 254.333C811.075 218.232 784.079 185.6 750.143 165.696C720.418 148.262 690.482 140.671 656.967 134.893C661.606 137.292 668.882 139.473 673.922 141.291C683.968 144.812 693.903 148.642 703.713 152.774C757.3 175.529 790.679 207.901 814.455 261.016C809.485 263.827 806.679 264.799 801.396 266.726C782.442 245.284 763.654 209.353 730.677 203.865C729.27 203.631 728.769 204.071 727.86 204.92C727.981 207.425 731.191 211.909 732.683 214.316C731.547 218.766 730.935 222.811 727.744 226.174C704.732 199.855 673.515 182.073 639.144 175.705C629.61 165.993 555.475 148.221 537.522 145.111C565.617 160.34 589.311 176.164 609.716 201.232C589.261 194.346 539.46 175.245 520.076 187.148C511.955 185.256 502.921 183.582 495.052 181.626C523.473 196.344 527.946 201.207 547.031 227.143C519.861 210.877 495.03 199.459 464.263 191.57C323.459 155.467 176.048 232.983 103.803 354.373C59.4478 428.951 38.0635 514.958 42.3259 601.631C43.293 618.818 46.1683 632.503 48.3315 649.31Z"/><path fill="#33A0AD" transform="scale(0.455792 0.455523)" d="M841.551 222.572C850.319 222.028 853.558 217.66 859.374 211.613C889.424 242.723 911.078 282.639 911.098 326.844C911.102 337.259 904.94 360.615 892.421 345.167C887.524 339.125 882.963 332.022 875.365 329.307C877.242 307.783 876.43 298.403 867.049 278.989C860.495 261.797 849.04 240.837 840.242 224.566L841.551 222.572Z"/><path fill="#25739A" transform="scale(0.455792 0.455523)" d="M826.355 254.333C838.459 256.234 843.648 260.725 841.218 273.896C840.329 278.719 837.696 284.389 835.111 288.563C833.013 276.845 830.343 265.554 826.355 254.333Z"/><path fill="#25739A" transform="scale(0.455792 0.455523)" d="M801.197 174.002C812.639 183.12 835.542 209.436 841.551 222.572L840.242 224.566C835.191 218.822 827.863 207.206 822.468 200.531C815.684 192.139 806.251 182.82 801.197 174.002Z"/><path fill="#25739A" transform="scale(0.455792 0.455523)" d="M912.229 241.415C920.388 237.852 923.307 235.647 930.067 230.218C933.467 246.288 923.908 253.211 912.229 241.415Z"/><defs><linearGradient id="gradient_0" gradientUnits="userSpaceOnUse" x1="710.55255" y1="568.08649" x2="530.19708" y2="1027.2773"><stop offset="0" stop-color="#548D40"/><stop offset="1" stop-color="#70A744"/></linearGradient></defs><path fill="url(#gradient_0)" transform="scale(0.455792 0.455523)" d="M150.565 348.775L151.383 349.559L150.821 352.648C154.024 357.158 169.745 357.281 175.494 358.075C174.17 363.719 171.427 365.86 168.64 370.906C168.845 371.289 169.051 371.672 169.256 372.054C117.931 454.713 101.434 545.779 123.683 641.039C144.788 731.359 200.942 809.573 279.762 858.434C457.772 968.597 681.63 890.987 870.881 864.307C968.393 850.56 1073.62 848.056 1169.8 870.978C1198.38 877.788 1239.68 887.169 1265.46 900.281C1156.35 872.39 1032.83 870.02 921.695 887.047C899.36 890.469 864.253 896.559 842.54 902.542C783.303 918.863 725.65 939.584 665.431 952.954C505.958 988.361 324.99 984.073 192.992 875.498C157.876 846.73 128.029 812.072 104.786 773.074C68.4789 711.948 56.1945 645.733 56.4458 575.414C56.5018 559.755 57.7846 545.534 58.6035 530.054C66.2671 517.565 71.6843 489.516 76.6186 474.919C92.8289 426.964 117.561 386.563 150.565 348.775Z"/><path fill="#E0AB59" transform="scale(0.455792 0.455523)" d="M160.575 423.089C161.186 425.356 155.363 458.188 154.71 463.615C151.157 493.116 151.756 519.609 156.823 548.865C169.394 621.643 206.513 687.917 261.996 736.648C382.262 841.628 541.953 844.507 692.435 831.252C735.482 827.461 778.283 821.188 821.094 817.147C866.186 812.841 911.455 810.651 956.753 810.583C1047.54 811.051 1141.36 822.218 1227.83 850.493C1251.01 858.312 1273.85 867.11 1296.29 876.862C1330.07 891.23 1357.53 903.475 1387.83 924.803C1374.65 920.118 1361.64 914.991 1348.8 909.43C1206.29 846.333 1046.39 830.484 892.597 849.189C745.719 867.054 610.152 914.397 459.218 897.273C414.227 892.528 370.24 880.855 328.814 862.668C246.829 825.21 183.093 756.69 151.643 672.2C126.297 604.816 125.747 537.612 145.004 468.46C148.894 454.49 154.606 436.255 160.575 423.089Z"/><path fill="#2B346B" transform="scale(0.455792 0.455523)" d="M971.632 745.717C972.448 745.602 972.701 745.602 973.543 745.621C1096.47 748.344 1220.48 776.692 1325.21 843.086C1362.15 866.507 1389.54 886.419 1420.24 918.004C1268.89 818.84 1151.34 794.7 972.498 795.931C934.07 796.895 895.69 799.251 857.432 802.994C753.7 813.296 533.63 845.309 438.39 810.584C507.345 820.422 589.51 813.076 655.633 792.929C690.91 782.181 716.449 772.056 753.592 764.601C826.515 749.964 897.514 747.041 971.632 745.717Z"/><path fill="#33A0AD" transform="scale(0.455792 0.455523)" d="M203.655 555.771C200.529 536.917 196.842 518.767 194.942 499.993C183.649 388.453 232.674 275.122 353.742 257.992C385.309 253.526 418.496 252.873 449.698 261.903C399.337 262.823 351.389 283.654 316.34 319.84C221.902 416.257 233.02 589.039 328.063 681.231C341.429 694.196 356.626 706.255 371.876 716.929C351.78 717.17 321.236 696.892 304.688 686.35C281.212 671.17 260.142 651.564 242.549 629.882C234.533 620.091 228.484 607.138 219.845 598.051C209.506 587.176 206.622 570.344 203.655 555.771Z"/><path fill="#245486" transform="scale(0.455792 0.455523)" d="M683.261 762.69C647.144 774.231 617.37 784.764 579.648 791.804C480.281 810.348 376.403 800.33 291.286 742.133C227.96 698.941 184.481 632.26 170.493 556.881C159.556 498.155 165.334 416.312 199.815 365.975C196.034 375.112 193.046 384.558 190.884 394.207C180.926 437.365 179.589 517.127 203.655 555.771C206.622 570.344 209.506 587.176 219.845 598.051C228.484 607.138 234.533 620.091 242.549 629.882C260.142 651.564 281.212 671.17 304.688 686.35C321.236 696.892 351.78 717.17 371.876 716.929C452.039 766.259 532.627 777.992 624.797 770.202C644.663 768.523 663.707 764.606 683.261 762.69Z"/><path fill="#25739A" transform="scale(0.455792 0.455523)" d="M537.522 145.111C555.475 148.221 629.61 165.993 639.144 175.705L640.411 176.733C687.095 200.051 724.416 232.936 741.317 283.863C750.668 311.714 751.29 341.757 743.098 369.971C741.862 374.356 739.822 381.982 737.669 386.004C732.359 395.923 722.951 406.875 712.189 410.99C708.036 412.577 700.626 411.388 699.826 406.303C698.871 400.238 705.449 392.785 708.832 388.155C721.048 373.282 730.102 355.943 727.599 336.06C726.281 325.591 720.735 314.036 713.848 305.851C713.997 316.62 719.053 365.869 702.575 366.062C697.711 363.491 697.686 351.39 697.189 346.148C683.494 379.621 666.604 406.056 625.192 403.21C620.794 402.907 613.878 402.928 610.825 399.542C612.505 396.027 633.698 389.775 638.555 385.277C671.104 355.139 671.241 299.735 648.349 263.765C652.637 314.533 658.181 348.304 606.421 375.835C626.581 337.515 627.457 300.577 607.405 261.632C589.39 226.148 557.951 199.334 520.076 187.148C539.46 175.245 589.261 194.346 609.716 201.232C589.311 176.164 565.617 160.34 537.522 145.111Z"/><path fill="#33A0AD" transform="scale(0.455792 0.455523)" d="M640.411 176.733C687.095 200.051 724.416 232.936 741.317 283.863C750.668 311.714 751.29 341.757 743.098 369.971C741.862 374.356 739.822 381.982 737.669 386.004C732.359 395.923 722.951 406.875 712.189 410.99C708.036 412.577 700.626 411.388 699.826 406.303C698.871 400.238 705.449 392.785 708.832 388.155C721.048 373.282 730.102 355.943 727.599 336.06C726.281 325.591 720.735 314.036 713.848 305.851C710.318 302.972 698.854 261.838 695.489 253.918C685.18 229.657 676.482 218.365 657.603 200.047C652.412 195.01 644.866 187.351 640.811 181.334C639.402 179.243 639.876 178.603 640.411 176.733Z"/><path fill="#33A0AD" transform="scale(0.455792 0.455523)" d="M620.237 210.724C626.359 213.928 630.608 216.822 635.842 221.352C674.279 254.623 695.597 295.071 697.189 346.148C683.494 379.621 666.604 406.056 625.192 403.21C620.794 402.907 613.878 402.928 610.825 399.542C612.505 396.027 633.698 389.775 638.555 385.277C671.104 355.139 671.241 299.735 648.349 263.765C641.852 241.619 634.007 229.128 620.237 210.724Z"/><defs><linearGradient id="gradient_1" gradientUnits="userSpaceOnUse" x1="226.67557" y1="253.709" x2="354.39938" y2="477.32556"><stop offset="0" stop-color="#1A8466"/><stop offset="1" stop-color="#3CA096"/></linearGradient></defs><path fill="url(#gradient_1)" transform="scale(0.455792 0.455523)" d="M58.6035 530.054C56.2817 496.269 81.4811 433.903 96.2304 402.598C136.331 318.497 205.72 251.657 294.039 220.205C396.25 183.806 532.141 199.297 580.267 309.95C585.814 322.704 588.603 335.956 593.169 349.04C569.343 315.897 554.477 293.928 517.928 273.241C459.865 240.377 388.381 234.964 324.654 252.789C273.639 268.66 228.144 298.623 193.409 339.226C186.976 346.699 181.832 354.515 176.131 362.516C174.882 364.269 170.499 370.817 169.256 372.054C169.051 371.672 168.845 371.289 168.64 370.906C171.427 365.86 174.17 363.719 175.494 358.075C169.745 357.281 154.024 357.158 150.821 352.648L151.383 349.559L150.565 348.775C117.561 386.563 92.8289 426.964 76.6186 474.919C71.6843 489.516 66.2671 517.565 58.6035 530.054Z"/><path fill="#1F5936" transform="scale(0.455792 0.455523)" d="M150.565 348.775C171.546 325.595 195.53 305.325 221.882 288.504C231.191 282.664 240.786 277.292 250.629 272.407C267.485 264.072 285.243 257.11 303.196 251.534C310.214 249.354 320.461 244.637 324.654 252.789C273.639 268.66 228.144 298.623 193.409 339.226C186.976 346.699 181.832 354.515 176.131 362.516C174.882 364.269 170.499 370.817 169.256 372.054C169.051 371.672 168.845 371.289 168.64 370.906C171.427 365.86 174.17 363.719 175.494 358.075C169.745 357.281 154.024 357.158 150.821 352.648L151.383 349.559L150.565 348.775Z"/><path fill="#245486" transform="scale(0.455792 0.455523)" d="M1019.68 547.679C1054.11 545.069 1084.17 570.776 1086.95 605.198C1089.73 639.619 1064.18 669.817 1029.78 672.766C995.142 675.735 964.695 649.959 961.897 615.297C959.1 580.634 985.018 550.306 1019.68 547.679ZM1029.06 654.017C1053.14 651.484 1070.61 629.909 1068.08 605.824C1065.55 581.739 1043.99 564.262 1019.91 566.785C995.822 569.309 978.344 590.888 980.872 614.98C983.4 639.071 1004.98 656.55 1029.06 654.017Z"/><path fill="#245486" transform="scale(0.455792 0.455523)" d="M558.467 549.303C563.994 549.051 570.606 549.155 576.217 549.105C583.906 563.103 591.911 582.578 598.39 597.421L630.715 671.689C623.743 671.775 616.568 671.612 609.579 671.532C605.758 663.425 600.627 649.263 597.159 640.535L575.443 640.642L537.767 639.508C533.081 652.435 530.316 658.879 523.864 670.982L504.93 671.351C509.742 657.779 516.697 641.794 522.36 628.464C533.536 601.693 545.578 575.292 558.467 549.303ZM543.389 625.744C551.071 625.413 560.354 624.84 567.963 624.939L590.555 625.091C583.559 609.201 575.714 583.519 567.163 569.094C559.141 587.936 551.216 606.82 543.389 625.744Z"/><path fill="#245486" transform="scale(0.455792 0.455523)" d="M1144.23 548.87L1163.14 548.85C1175.44 574.007 1187.56 603.886 1198.91 629.8C1205.25 643.898 1211.81 657.898 1218.59 671.794C1211.05 671.868 1203.52 671.89 1195.99 671.86L1184.25 640.594C1178.6 639.964 1171.41 640.431 1165.62 640.614C1151.59 640.752 1137.55 640.541 1123.53 639.98C1120.29 650.651 1115.42 661.189 1110.11 670.973C1104.24 671.238 1097 671.041 1091.02 671.028C1109.62 630.498 1125.52 588.826 1144.23 548.87ZM1130.23 624.877L1156.41 624.884L1177.18 624.958C1172.5 615.03 1158.64 577.399 1152.99 571.87C1145.61 589.625 1138.02 607.295 1130.23 624.877Z"/><path fill="#245486" transform="scale(0.455792 0.455523)" d="M746.23 548.863C769.336 550.795 808.431 549.11 832.66 548.71C832.56 554.162 832.587 559.754 832.558 565.217C814.661 565.195 782.992 564.244 766.232 565.79L766.221 602.075C785.774 601.413 806.486 601.93 826.339 601.477C825.767 607.294 825.642 612.626 825.48 618.452C807.545 618.248 789.608 618.312 771.675 618.644C770.418 618.633 769.563 618.84 768.344 619.067C764.34 624.064 765.821 648.254 765.91 655.628C789.03 655.598 812.05 655.763 835.15 654.678L835.343 671.899C807.063 670.468 774.592 671.228 746.346 672.005C745.933 657.027 746.425 640.575 746.424 625.416L746.23 548.863Z"/><path fill="#245486" transform="scale(0.455792 0.455523)" d="M1264.71 548.26C1282.97 546.123 1298.54 552.59 1314.34 560.23L1307.2 576.479C1290.57 569.06 1265.58 558.441 1249.8 571.721C1244.03 576.659 1245.61 584.424 1251.25 588.923C1270.2 604.064 1316.64 606.03 1316.9 637.608C1317.14 666.245 1286.23 672.782 1263.13 672.674C1243.79 670.457 1235.72 665.925 1219.78 655.845C1222.23 649.792 1224.35 645.552 1227.34 639.753C1246.29 652.439 1275.22 666.327 1294.64 645.099C1296.01 643.74 1297.87 639.845 1297.21 637.999C1293.83 628.532 1282.31 624.974 1273.27 621.118C1256.7 614.048 1228.19 608.233 1225.53 586.435C1222.38 560.542 1243.03 550.834 1264.71 548.26Z"/><path fill="#245486" transform="scale(0.455792 0.455523)" d="M449.502 548.278C466.902 547.232 482.27 553.117 497.977 559.329C496.278 563.441 492.581 571.941 490.426 575.543C474.729 568.902 444.951 555.535 431.591 574.22C430.162 576.218 428.312 580.859 429.536 583.053C439.566 601.022 468.1 601.674 484.512 611.828C495.046 618.535 497.544 627.954 500.128 637.894C491.27 667.725 477.86 672.502 448.866 672.225C429.507 670.888 419.183 665.302 403.389 655.168C405.586 649.958 408.741 644.323 411.407 639.271C430.557 651.117 456.713 666.637 476.96 645.615C478.327 644.196 480.282 639.647 479.547 637.768C473.398 622.115 449.442 618.802 434.709 612.373C408.355 600.872 399.737 585.254 418.643 560.724C426.309 550.778 437.517 549.257 449.502 548.278Z"/><path fill="#245486" transform="scale(0.455792 0.455523)" d="M903.02 548.877C924.987 545.701 940.329 553.816 955.725 568.269C952.432 572.294 948.601 576.417 945.114 580.317C938.887 576.074 934.114 573.222 927.179 570.132C904.521 560.038 881.479 567.81 871.938 591.834C867.084 603.842 867.223 617.291 872.323 629.196C884.671 657.82 907.806 659.727 933.534 648.06C936.876 646.199 941.202 643.239 944.506 641.119C947.984 644.06 953.227 649.528 956.635 652.899C945.12 661.596 933.652 668.564 919.317 671.632C884.846 679.237 853.823 653.932 847.698 620.321C840.314 579.802 865.571 555.999 903.02 548.877Z"/><path fill="#245486" transform="scale(0.455792 0.455523)" d="M644.638 548.863C672.118 548.345 701.083 548.771 728.667 548.706C728.897 553.975 728.835 559.972 728.889 565.306C708.784 564.919 683.371 564.881 663.436 565.784C664.119 578.501 663.852 592.238 663.836 605.042C673.032 604.363 711.725 603.576 720.439 605.493L721 606.954C721.088 611.743 721.223 616.532 721.406 621.319C704.364 620.939 680.516 620.073 664.063 621.704C663.668 637.948 664.17 655.624 664.333 671.968L644.52 671.986C644.425 650.795 645.12 629.093 645.237 607.832C645.159 588.175 644.959 568.518 644.638 548.863Z"/><path fill="#245486" transform="scale(0.455792 0.455523)" d="M1321.54 548.831C1351.69 550.326 1391.06 549.045 1421.96 548.857L1421.86 565.942C1408.76 565.662 1394.61 565.957 1381.42 565.983L1381.4 630.291L1381.52 671.226C1375.06 671.663 1368.59 671.894 1362.12 671.917C1360.49 639.348 1361.54 599.099 1361.59 565.949C1348.73 565.701 1335.18 565.909 1322.27 565.901C1321.77 560.09 1321.67 554.65 1321.54 548.831Z"/><path fill="#25739A" transform="scale(0.455792 0.455523)" d="M867.049 278.989C876.43 298.403 877.242 307.783 875.365 329.307C872.771 339.207 867.347 348.575 859.615 355.308C853.731 360.566 839.761 367.458 834 358.423C822.987 341.152 833.279 316.685 835.873 298.597C845.392 298.884 859.181 293.865 868.062 290.75C867.451 286.482 867.256 283.311 867.049 278.989Z"/><path fill="#33A0AD" transform="scale(0.455792 0.455523)" d="M899.272 395.189C906.365 393.26 913.947 395.302 919.114 400.532C924.28 405.763 926.231 413.37 924.218 420.442C922.205 427.514 916.541 432.953 909.395 434.676C898.565 437.289 887.644 430.718 884.877 419.923C882.11 409.129 888.522 398.112 899.272 395.189Z"/><path fill="#33A0AD" transform="scale(0.455792 0.455523)" d="M928.767 275.436C947.822 281.167 966.944 290.624 953.969 313.169C927.546 328.413 927.006 291.223 928.767 275.436Z"/><path fill="#33A0AD" transform="scale(0.455792 0.455523)" d="M772.622 313.798C781.177 313.014 788.748 319.316 789.53 327.873C790.313 336.431 784.012 344.003 775.457 344.785C766.902 345.567 759.334 339.265 758.551 330.709C757.769 322.153 764.068 314.581 772.622 313.798Z"/><path fill="#25739A" transform="scale(0.455792 0.455523)" d="M814.455 261.016C822.196 281.796 824.177 288.175 825.887 309.981C817.089 295.726 810.006 280.571 801.396 266.726C806.679 264.799 809.485 263.827 814.455 261.016Z"/><path fill="#25739A" transform="scale(0.455792 0.455523)" d="M732.683 214.316C738.218 226.036 742.065 237.274 746.233 249.495C740.444 241.574 733.948 233.804 727.744 226.174C730.935 222.811 731.547 218.766 732.683 214.316Z"/><path fill="#33A0AD" transform="scale(0.455792 0.455523)" d="M758.475 289.55C762.154 288.691 765.845 290.927 766.789 294.586C767.732 298.245 765.583 301.987 761.948 303.016C759.521 303.702 756.912 303.02 755.132 301.233C753.351 299.446 752.677 296.834 753.372 294.409C754.066 291.983 756.019 290.124 758.475 289.55Z"/><path fill="#33A0AD" transform="scale(0.455792 0.455523)" d="M911.616 367.846C914.492 367.358 917.232 369.252 917.792 372.115C918.353 374.978 916.528 377.766 913.681 378.398C911.774 378.821 909.788 378.177 908.493 376.715C907.197 375.253 906.796 373.203 907.445 371.361C908.094 369.518 909.691 368.173 911.616 367.846Z"/></g></svg>